<?xml version="1.0" encoding="utf-8" standalone="no"?>
<!DOCTYPE svg PUBLIC "-//W3C//DTD SVG 1.1//EN"
  "http://www.w3.org/Graphics/SVG/1.1/DTD/svg11.dtd">
<svg xmlns:xlink="http://www.w3.org/1999/xlink" width="577.19952pt" height="577.19952pt" viewBox="0 0 577.19952 577.19952" xmlns="http://www.w3.org/2000/svg" version="1.1">
 <metadata>
  <rdf:RDF xmlns:dc="http://purl.org/dc/elements/1.1/" xmlns:cc="http://creativecommons.org/ns#" xmlns:rdf="http://www.w3.org/1999/02/22-rdf-syntax-ns#">
   <cc:Work>
    <dc:type rdf:resource="http://purl.org/dc/dcmitype/StillImage"/>
    <dc:date>2026-01-11T20:34:02.184222</dc:date>
    <dc:format>image/svg+xml</dc:format>
    <dc:creator>
     <cc:Agent>
      <dc:title>Matplotlib v3.10.8, https://matplotlib.org/</dc:title>
     </cc:Agent>
    </dc:creator>
   </cc:Work>
  </rdf:RDF>
 </metadata>
 <defs>
  <style type="text/css">*{stroke-linejoin: round; stroke-linecap: butt}</style>
 </defs>
 <g id="figure_1">
  <g id="patch_1">
   <path d="M 0 577.19952 
L 577.19952 577.19952 
L 577.19952 0 
L 0 0 
z
" style="fill: #ffffff"/>
  </g>
  <g id="axes_1">
   <g id="patch_2">
    <path d="M 52.514572 516.824775 
L 567.09952 516.824775 
L 567.09952 10.1 
L 52.514572 10.1 
z
" style="fill: #ffffff"/>
   </g>
   <g id="patch_3">
    <path d="M 75.904797 516.824775 
L 80.304212 516.824775 
L 80.304212 462.083508 
L 75.904797 462.083508 
z
" clip-path="url(#pf3c613230e)" style="fill: #3f90da"/>
   </g>
   <g id="patch_4">
    <path d="M 90.569515 516.824775 
L 94.96893 516.824775 
L 94.96893 462.083508 
L 90.569515 462.083508 
z
" clip-path="url(#pf3c613230e)" style="fill: #3f90da"/>
   </g>
   <g id="patch_5">
    <path d="M 105.234233 516.824775 
L 109.633648 516.824775 
L 109.633648 462.083508 
L 105.234233 462.083508 
z
" clip-path="url(#pf3c613230e)" style="fill: #3f90da"/>
   </g>
   <g id="patch_6">
    <path d="M 119.89895 516.824775 
L 124.298366 516.824775 
L 124.298366 462.083508 
L 119.89895 462.083508 
z
" clip-path="url(#pf3c613230e)" style="fill: #3f90da"/>
   </g>
   <g id="patch_7">
    <path d="M 134.563668 516.824775 
L 138.963084 516.824775 
L 138.963084 462.083508 
L 134.563668 462.083508 
z
" clip-path="url(#pf3c613230e)" style="fill: #3f90da"/>
   </g>
   <g id="patch_8">
    <path d="M 149.228386 516.824775 
L 153.627801 516.824775 
L 153.627801 462.083508 
L 149.228386 462.083508 
z
" clip-path="url(#pf3c613230e)" style="fill: #3f90da"/>
   </g>
   <g id="patch_9">
    <path d="M 163.893104 516.824775 
L 168.292519 516.824775 
L 168.292519 462.083508 
L 163.893104 462.083508 
z
" clip-path="url(#pf3c613230e)" style="fill: #3f90da"/>
   </g>
   <g id="patch_10">
    <path d="M 178.557822 516.824775 
L 182.957237 516.824775 
L 182.957237 462.083508 
L 178.557822 462.083508 
z
" clip-path="url(#pf3c613230e)" style="fill: #3f90da"/>
   </g>
   <g id="patch_11">
    <path d="M 193.222539 516.824775 
L 197.621955 516.824775 
L 197.621955 462.083508 
L 193.222539 462.083508 
z
" clip-path="url(#pf3c613230e)" style="fill: #3f90da"/>
   </g>
   <g id="patch_12">
    <path d="M 207.887257 516.824775 
L 212.286673 516.824775 
L 212.286673 462.083508 
L 207.887257 462.083508 
z
" clip-path="url(#pf3c613230e)" style="fill: #3f90da"/>
   </g>
   <g id="patch_13">
    <path d="M 222.551975 516.824775 
L 226.95139 516.824775 
L 226.95139 462.083508 
L 222.551975 462.083508 
z
" clip-path="url(#pf3c613230e)" style="fill: #3f90da"/>
   </g>
   <g id="patch_14">
    <path d="M 237.216693 516.824775 
L 241.616108 516.824775 
L 241.616108 462.083508 
L 237.216693 462.083508 
z
" clip-path="url(#pf3c613230e)" style="fill: #3f90da"/>
   </g>
   <g id="patch_15">
    <path d="M 251.881411 516.824775 
L 256.280826 516.824775 
L 256.280826 462.083508 
L 251.881411 462.083508 
z
" clip-path="url(#pf3c613230e)" style="fill: #3f90da"/>
   </g>
   <g id="patch_16">
    <path d="M 266.546128 516.824775 
L 270.945544 516.824775 
L 270.945544 462.083508 
L 266.546128 462.083508 
z
" clip-path="url(#pf3c613230e)" style="fill: #3f90da"/>
   </g>
   <g id="patch_17">
    <path d="M 281.210846 516.824775 
L 285.610262 516.824775 
L 285.610262 462.083508 
L 281.210846 462.083508 
z
" clip-path="url(#pf3c613230e)" style="fill: #3f90da"/>
   </g>
   <g id="patch_18">
    <path d="M 295.875564 516.824775 
L 300.274979 516.824775 
L 300.274979 462.083508 
L 295.875564 462.083508 
z
" clip-path="url(#pf3c613230e)" style="fill: #3f90da"/>
   </g>
   <g id="patch_19">
    <path d="M 310.540282 516.824775 
L 314.939697 516.824775 
L 314.939697 462.083508 
L 310.540282 462.083508 
z
" clip-path="url(#pf3c613230e)" style="fill: #3f90da"/>
   </g>
   <g id="patch_20">
    <path d="M 325.205 516.824775 
L 329.604415 516.824775 
L 329.604415 462.083508 
L 325.205 462.083508 
z
" clip-path="url(#pf3c613230e)" style="fill: #3f90da"/>
   </g>
   <g id="patch_21">
    <path d="M 339.869718 516.824775 
L 344.269133 516.824775 
L 344.269133 462.083508 
L 339.869718 462.083508 
z
" clip-path="url(#pf3c613230e)" style="fill: #3f90da"/>
   </g>
   <g id="patch_22">
    <path d="M 354.534435 516.824775 
L 358.933851 516.824775 
L 358.933851 462.083508 
L 354.534435 462.083508 
z
" clip-path="url(#pf3c613230e)" style="fill: #3f90da"/>
   </g>
   <g id="patch_23">
    <path d="M 369.199153 516.824775 
L 373.598569 516.824775 
L 373.598569 462.083508 
L 369.199153 462.083508 
z
" clip-path="url(#pf3c613230e)" style="fill: #3f90da"/>
   </g>
   <g id="patch_24">
    <path d="M 383.863871 516.824775 
L 388.263286 516.824775 
L 388.263286 462.083508 
L 383.863871 462.083508 
z
" clip-path="url(#pf3c613230e)" style="fill: #3f90da"/>
   </g>
   <g id="patch_25">
    <path d="M 398.528589 516.824775 
L 402.928004 516.824775 
L 402.928004 462.083508 
L 398.528589 462.083508 
z
" clip-path="url(#pf3c613230e)" style="fill: #3f90da"/>
   </g>
   <g id="patch_26">
    <path d="M 413.193307 516.824775 
L 417.592722 516.824775 
L 417.592722 462.083508 
L 413.193307 462.083508 
z
" clip-path="url(#pf3c613230e)" style="fill: #3f90da"/>
   </g>
   <g id="patch_27">
    <path d="M 427.858024 516.824775 
L 432.25744 516.824775 
L 432.25744 462.083508 
L 427.858024 462.083508 
z
" clip-path="url(#pf3c613230e)" style="fill: #3f90da"/>
   </g>
   <g id="patch_28">
    <path d="M 442.522742 516.824775 
L 446.922158 516.824775 
L 446.922158 462.083508 
L 442.522742 462.083508 
z
" clip-path="url(#pf3c613230e)" style="fill: #3f90da"/>
   </g>
   <g id="patch_29">
    <path d="M 457.18746 516.824775 
L 461.586875 516.824775 
L 461.586875 462.083508 
L 457.18746 462.083508 
z
" clip-path="url(#pf3c613230e)" style="fill: #3f90da"/>
   </g>
   <g id="patch_30">
    <path d="M 471.852178 516.824775 
L 476.251593 516.824775 
L 476.251593 462.083508 
L 471.852178 462.083508 
z
" clip-path="url(#pf3c613230e)" style="fill: #3f90da"/>
   </g>
   <g id="patch_31">
    <path d="M 486.516896 516.824775 
L 490.916311 516.824775 
L 490.916311 462.083508 
L 486.516896 462.083508 
z
" clip-path="url(#pf3c613230e)" style="fill: #3f90da"/>
   </g>
   <g id="patch_32">
    <path d="M 501.181613 516.824775 
L 505.581029 516.824775 
L 505.581029 462.083508 
L 501.181613 462.083508 
z
" clip-path="url(#pf3c613230e)" style="fill: #3f90da"/>
   </g>
   <g id="patch_33">
    <path d="M 515.846331 516.824775 
L 520.245747 516.824775 
L 520.245747 462.083508 
L 515.846331 462.083508 
z
" clip-path="url(#pf3c613230e)" style="fill: #3f90da"/>
   </g>
   <g id="patch_34">
    <path d="M 530.511049 516.824775 
L 534.910464 516.824775 
L 534.910464 462.083508 
L 530.511049 462.083508 
z
" clip-path="url(#pf3c613230e)" style="fill: #3f90da"/>
   </g>
   <g id="patch_35">
    <path d="M 80.304212 516.824775 
L 84.703628 516.824775 
L 84.703628 44.044631 
L 80.304212 44.044631 
z
" clip-path="url(#pf3c613230e)" style="fill: #ffa90e"/>
   </g>
   <g id="patch_36">
    <path d="M 94.96893 516.824775 
L 99.368345 516.824775 
L 99.368345 37.381588 
L 94.96893 37.381588 
z
" clip-path="url(#pf3c613230e)" style="fill: #ffa90e"/>
   </g>
   <g id="patch_37">
    <path d="M 109.633648 516.824775 
L 114.033063 516.824775 
L 114.033063 34.229751 
L 109.633648 34.229751 
z
" clip-path="url(#pf3c613230e)" style="fill: #ffa90e"/>
   </g>
   <g id="patch_38">
    <path d="M 124.298366 516.824775 
L 128.697781 516.824775 
L 128.697781 302.17388 
L 124.298366 302.17388 
z
" clip-path="url(#pf3c613230e)" style="fill: #ffa90e"/>
   </g>
   <g id="patch_39">
    <path d="M 138.963084 516.824775 
L 143.362499 516.824775 
L 143.362499 265.363635 
L 138.963084 265.363635 
z
" clip-path="url(#pf3c613230e)" style="fill: #ffa90e"/>
   </g>
   <g id="patch_40">
    <path d="M 153.627801 516.824775 
L 158.027217 516.824775 
L 158.027217 235.8349 
L 153.627801 235.8349 
z
" clip-path="url(#pf3c613230e)" style="fill: #ffa90e"/>
   </g>
   <g id="patch_41">
    <path d="M 168.292519 516.824775 
L 172.691935 516.824775 
L 172.691935 156.86549 
L 168.292519 156.86549 
z
" clip-path="url(#pf3c613230e)" style="fill: #ffa90e"/>
   </g>
   <g id="patch_42">
    <path d="M 182.957237 516.824775 
L 187.356652 516.824775 
L 187.356652 160.488732 
L 182.957237 160.488732 
z
" clip-path="url(#pf3c613230e)" style="fill: #ffa90e"/>
   </g>
   <g id="patch_43">
    <path d="M 197.621955 516.824775 
L 202.02137 516.824775 
L 202.02137 168.857981 
L 197.621955 168.857981 
z
" clip-path="url(#pf3c613230e)" style="fill: #ffa90e"/>
   </g>
   <g id="patch_44">
    <path d="M 212.286673 516.824775 
L 216.686088 516.824775 
L 216.686088 215.313173 
L 212.286673 215.313173 
z
" clip-path="url(#pf3c613230e)" style="fill: #ffa90e"/>
   </g>
   <g id="patch_45">
    <path d="M 226.95139 516.824775 
L 231.350806 516.824775 
L 231.350806 285.465511 
L 226.95139 285.465511 
z
" clip-path="url(#pf3c613230e)" style="fill: #ffa90e"/>
   </g>
   <g id="patch_46">
    <path d="M 241.616108 516.824775 
L 246.015524 516.824775 
L 246.015524 307.667017 
L 241.616108 307.667017 
z
" clip-path="url(#pf3c613230e)" style="fill: #ffa90e"/>
   </g>
   <g id="patch_47">
    <path d="M 256.280826 516.824775 
L 260.680241 516.824775 
L 260.680241 296.827749 
L 256.280826 296.827749 
z
" clip-path="url(#pf3c613230e)" style="fill: #ffa90e"/>
   </g>
   <g id="patch_48">
    <path d="M 270.945544 516.824775 
L 275.344959 516.824775 
L 275.344959 290.371377 
L 270.945544 290.371377 
z
" clip-path="url(#pf3c613230e)" style="fill: #ffa90e"/>
   </g>
   <g id="patch_49">
    <path d="M 285.610262 516.824775 
L 290.009677 516.824775 
L 290.009677 276.904236 
L 285.610262 276.904236 
z
" clip-path="url(#pf3c613230e)" style="fill: #ffa90e"/>
   </g>
   <g id="patch_50">
    <path d="M 300.274979 516.824775 
L 304.674395 516.824775 
L 304.674395 271.073923 
L 300.274979 271.073923 
z
" clip-path="url(#pf3c613230e)" style="fill: #ffa90e"/>
   </g>
   <g id="patch_51">
    <path d="M 314.939697 516.824775 
L 319.339113 516.824775 
L 319.339113 302.818856 
L 314.939697 302.818856 
z
" clip-path="url(#pf3c613230e)" style="fill: #ffa90e"/>
   </g>
   <g id="patch_52">
    <path d="M 329.604415 516.824775 
L 334.00383 516.824775 
L 334.00383 285.931253 
L 329.604415 285.931253 
z
" clip-path="url(#pf3c613230e)" style="fill: #ffa90e"/>
   </g>
   <g id="patch_53">
    <path d="M 344.269133 516.824775 
L 348.668548 516.824775 
L 348.668548 265.876325 
L 344.269133 265.876325 
z
" clip-path="url(#pf3c613230e)" style="fill: #ffa90e"/>
   </g>
   <g id="patch_54">
    <path d="M 358.933851 516.824775 
L 363.333266 516.824775 
L 363.333266 293.478069 
L 358.933851 293.478069 
z
" clip-path="url(#pf3c613230e)" style="fill: #ffa90e"/>
   </g>
   <g id="patch_55">
    <path d="M 373.598569 516.824775 
L 377.997984 516.824775 
L 377.997984 310.102852 
L 373.598569 310.102852 
z
" clip-path="url(#pf3c613230e)" style="fill: #ffa90e"/>
   </g>
   <g id="patch_56">
    <path d="M 388.263286 516.824775 
L 392.662702 516.824775 
L 392.662702 308.83946 
L 388.263286 308.83946 
z
" clip-path="url(#pf3c613230e)" style="fill: #ffa90e"/>
   </g>
   <g id="patch_57">
    <path d="M 402.928004 516.824775 
L 407.327419 516.824775 
L 407.327419 273.128418 
L 402.928004 273.128418 
z
" clip-path="url(#pf3c613230e)" style="fill: #ffa90e"/>
   </g>
   <g id="patch_58">
    <path d="M 417.592722 516.824775 
L 421.992137 516.824775 
L 421.992137 191.891753 
L 417.592722 191.891753 
z
" clip-path="url(#pf3c613230e)" style="fill: #ffa90e"/>
   </g>
   <g id="patch_59">
    <path d="M 432.25744 516.824775 
L 436.656855 516.824775 
L 436.656855 179.070756 
L 432.25744 179.070756 
z
" clip-path="url(#pf3c613230e)" style="fill: #ffa90e"/>
   </g>
   <g id="patch_60">
    <path d="M 446.922158 516.824775 
L 451.321573 516.824775 
L 451.321573 158.81125 
L 446.922158 158.81125 
z
" clip-path="url(#pf3c613230e)" style="fill: #ffa90e"/>
   </g>
   <g id="patch_61">
    <path d="M 461.586875 516.824775 
L 465.986291 516.824775 
L 465.986291 176.894751 
L 461.586875 176.894751 
z
" clip-path="url(#pf3c613230e)" style="fill: #ffa90e"/>
   </g>
   <g id="patch_62">
    <path d="M 476.251593 516.824775 
L 480.651009 516.824775 
L 480.651009 251.676366 
L 476.251593 251.676366 
z
" clip-path="url(#pf3c613230e)" style="fill: #ffa90e"/>
   </g>
   <g id="patch_63">
    <path d="M 490.916311 516.824775 
L 495.315726 516.824775 
L 495.315726 112.897524 
L 490.916311 112.897524 
z
" clip-path="url(#pf3c613230e)" style="fill: #ffa90e"/>
   </g>
   <g id="patch_64">
    <path d="M 505.581029 516.824775 
L 509.980444 516.824775 
L 509.980444 75.764606 
L 505.581029 75.764606 
z
" clip-path="url(#pf3c613230e)" style="fill: #ffa90e"/>
   </g>
   <g id="patch_65">
    <path d="M 520.245747 516.824775 
L 524.645162 516.824775 
L 524.645162 49.220204 
L 520.245747 49.220204 
z
" clip-path="url(#pf3c613230e)" style="fill: #ffa90e"/>
   </g>
   <g id="patch_66">
    <path d="M 534.910464 516.824775 
L 539.30988 516.824775 
L 539.30988 56.365446 
L 534.910464 56.365446 
z
" clip-path="url(#pf3c613230e)" style="fill: #ffa90e"/>
   </g>
   <g id="patch_67">
    <path d="M 84.703628 516.824775 
L 89.103043 516.824775 
L 89.103043 242.75548 
L 84.703628 242.75548 
z
" clip-path="url(#pf3c613230e)" style="fill: #bd1f01"/>
   </g>
   <g id="patch_68">
    <path d="M 99.368345 516.824775 
L 103.767761 516.824775 
L 103.767761 330.247175 
L 99.368345 330.247175 
z
" clip-path="url(#pf3c613230e)" style="fill: #bd1f01"/>
   </g>
   <g id="patch_69">
    <path d="M 114.033063 516.824775 
L 118.432479 516.824775 
L 118.432479 330.905254 
L 114.033063 330.905254 
z
" clip-path="url(#pf3c613230e)" style="fill: #bd1f01"/>
   </g>
   <g id="patch_70">
    <path d="M 128.697781 516.824775 
L 133.097196 516.824775 
L 133.097196 382.057559 
L 128.697781 382.057559 
z
" clip-path="url(#pf3c613230e)" style="fill: #bd1f01"/>
   </g>
   <g id="patch_71">
    <path d="M 143.362499 516.824775 
L 147.761914 516.824775 
L 147.761914 382.951695 
L 143.362499 382.951695 
z
" clip-path="url(#pf3c613230e)" style="fill: #bd1f01"/>
   </g>
   <g id="patch_72">
    <path d="M 158.027217 516.824775 
L 162.426632 516.824775 
L 162.426632 385.437686 
L 158.027217 385.437686 
z
" clip-path="url(#pf3c613230e)" style="fill: #bd1f01"/>
   </g>
   <g id="patch_73">
    <path d="M 172.691935 516.824775 
L 177.09135 516.824775 
L 177.09135 357.774675 
L 172.691935 357.774675 
z
" clip-path="url(#pf3c613230e)" style="fill: #bd1f01"/>
   </g>
   <g id="patch_74">
    <path d="M 187.356652 516.824775 
L 191.756068 516.824775 
L 191.756068 360.004913 
L 187.356652 360.004913 
z
" clip-path="url(#pf3c613230e)" style="fill: #bd1f01"/>
   </g>
   <g id="patch_75">
    <path d="M 202.02137 516.824775 
L 206.420785 516.824775 
L 206.420785 361.483782 
L 202.02137 361.483782 
z
" clip-path="url(#pf3c613230e)" style="fill: #bd1f01"/>
   </g>
   <g id="patch_76">
    <path d="M 216.686088 516.824775 
L 221.085503 516.824775 
L 221.085503 337.254352 
L 216.686088 337.254352 
z
" clip-path="url(#pf3c613230e)" style="fill: #bd1f01"/>
   </g>
   <g id="patch_77">
    <path d="M 231.350806 516.824775 
L 235.750221 516.824775 
L 235.750221 346.272233 
L 231.350806 346.272233 
z
" clip-path="url(#pf3c613230e)" style="fill: #bd1f01"/>
   </g>
   <g id="patch_78">
    <path d="M 246.015524 516.824775 
L 250.414939 516.824775 
L 250.414939 339.743847 
L 246.015524 339.743847 
z
" clip-path="url(#pf3c613230e)" style="fill: #bd1f01"/>
   </g>
   <g id="patch_79">
    <path d="M 260.680241 516.824775 
L 265.079657 516.824775 
L 265.079657 350.897556 
L 260.680241 350.897556 
z
" clip-path="url(#pf3c613230e)" style="fill: #bd1f01"/>
   </g>
   <g id="patch_80">
    <path d="M 275.344959 516.824775 
L 279.744375 516.824775 
L 279.744375 359.103123 
L 275.344959 359.103123 
z
" clip-path="url(#pf3c613230e)" style="fill: #bd1f01"/>
   </g>
   <g id="patch_81">
    <path d="M 290.009677 516.824775 
L 294.409092 516.824775 
L 294.409092 358.669055 
L 290.009677 358.669055 
z
" clip-path="url(#pf3c613230e)" style="fill: #bd1f01"/>
   </g>
   <g id="patch_82">
    <path d="M 304.674395 516.824775 
L 309.07381 516.824775 
L 309.07381 359.345591 
L 304.674395 359.345591 
z
" clip-path="url(#pf3c613230e)" style="fill: #bd1f01"/>
   </g>
   <g id="patch_83">
    <path d="M 319.339113 516.824775 
L 323.738528 516.824775 
L 323.738528 336.289244 
L 319.339113 336.289244 
z
" clip-path="url(#pf3c613230e)" style="fill: #bd1f01"/>
   </g>
   <g id="patch_84">
    <path d="M 334.00383 516.824775 
L 338.403246 516.824775 
L 338.403246 338.495657 
L 334.00383 338.495657 
z
" clip-path="url(#pf3c613230e)" style="fill: #bd1f01"/>
   </g>
   <g id="patch_85">
    <path d="M 348.668548 516.824775 
L 353.067964 516.824775 
L 353.067964 324.620345 
L 348.668548 324.620345 
z
" clip-path="url(#pf3c613230e)" style="fill: #bd1f01"/>
   </g>
   <g id="patch_86">
    <path d="M 363.333266 516.824775 
L 367.732681 516.824775 
L 367.732681 337.143221 
L 363.333266 337.143221 
z
" clip-path="url(#pf3c613230e)" style="fill: #bd1f01"/>
   </g>
   <g id="patch_87">
    <path d="M 377.997984 516.824775 
L 382.397399 516.824775 
L 382.397399 336.252668 
L 377.997984 336.252668 
z
" clip-path="url(#pf3c613230e)" style="fill: #bd1f01"/>
   </g>
   <g id="patch_88">
    <path d="M 392.662702 516.824775 
L 397.062117 516.824775 
L 397.062117 328.670797 
L 392.662702 328.670797 
z
" clip-path="url(#pf3c613230e)" style="fill: #bd1f01"/>
   </g>
   <g id="patch_89">
    <path d="M 407.327419 516.824775 
L 411.726835 516.824775 
L 411.726835 334.719771 
L 407.327419 334.719771 
z
" clip-path="url(#pf3c613230e)" style="fill: #bd1f01"/>
   </g>
   <g id="patch_90">
    <path d="M 421.992137 516.824775 
L 426.391553 516.824775 
L 426.391553 308.407547 
L 421.992137 308.407547 
z
" clip-path="url(#pf3c613230e)" style="fill: #bd1f01"/>
   </g>
   <g id="patch_91">
    <path d="M 436.656855 516.824775 
L 441.05627 516.824775 
L 441.05627 305.298678 
L 436.656855 305.298678 
z
" clip-path="url(#pf3c613230e)" style="fill: #bd1f01"/>
   </g>
   <g id="patch_92">
    <path d="M 451.321573 516.824775 
L 455.720988 516.824775 
L 455.720988 305.270337 
L 451.321573 305.270337 
z
" clip-path="url(#pf3c613230e)" style="fill: #bd1f01"/>
   </g>
   <g id="patch_93">
    <path d="M 465.986291 516.824775 
L 470.385706 516.824775 
L 470.385706 299.756233 
L 465.986291 299.756233 
z
" clip-path="url(#pf3c613230e)" style="fill: #bd1f01"/>
   </g>
   <g id="patch_94">
    <path d="M 480.651009 516.824775 
L 485.050424 516.824775 
L 485.050424 340.041541 
L 480.651009 340.041541 
z
" clip-path="url(#pf3c613230e)" style="fill: #bd1f01"/>
   </g>
   <g id="patch_95">
    <path d="M 495.315726 516.824775 
L 499.715142 516.824775 
L 499.715142 284.657677 
L 495.315726 284.657677 
z
" clip-path="url(#pf3c613230e)" style="fill: #bd1f01"/>
   </g>
   <g id="patch_96">
    <path d="M 509.980444 516.824775 
L 514.379859 516.824775 
L 514.379859 269.114748 
L 509.980444 269.114748 
z
" clip-path="url(#pf3c613230e)" style="fill: #bd1f01"/>
   </g>
   <g id="patch_97">
    <path d="M 524.645162 516.824775 
L 529.044577 516.824775 
L 529.044577 257.119272 
L 524.645162 257.119272 
z
" clip-path="url(#pf3c613230e)" style="fill: #bd1f01"/>
   </g>
   <g id="patch_98">
    <path d="M 539.30988 516.824775 
L 543.709295 516.824775 
L 543.709295 257.55847 
L 539.30988 257.55847 
z
" clip-path="url(#pf3c613230e)" style="fill: #bd1f01"/>
   </g>
   <g id="matplotlib.axis_1">
    <g id="xtick_1">
     <g id="line2d_1">
      <path d="M 78.104505 516.824775 
L 78.104505 10.1 
" clip-path="url(#pf3c613230e)" style="fill: none; stroke: #b0b0b0; stroke-width: 0.5; stroke-linecap: square"/>
     </g>
     <g id="line2d_2">
      <defs>
       <path id="mfa3d58a5c4" d="M 0 0 
L 0 6.5 
" style="stroke: #000000; stroke-width: 1.5"/>
      </defs>
      <g>
       <use xlink:href="#mfa3d58a5c4" x="78.104505" y="516.824775" style="stroke: #000000; stroke-width: 1.5"/>
      </g>
     </g>
     <g id="line2d_3">
      <defs>
       <path id="m4e107ed15d" d="M 0 0 
L 0 -6.5 
" style="stroke: #000000; stroke-width: 1.5"/>
      </defs>
      <g>
       <use xlink:href="#m4e107ed15d" x="78.104505" y="10.1" style="stroke: #000000; stroke-width: 1.5"/>
      </g>
     </g>
     <g id="text_1">
      <!-- $\mathdefault{0}$ -->
      <g transform="translate(73.123185 540.33393) scale(0.2 -0.2)">
       <defs>
        <path id="NimbusRomNo9L-Regu-30" d="M 1626 4352 
C 1274 4352 1005 4243 768 4019 
C 397 3661 154 2924 154 2176 
C 154 1478 365 729 666 371 
C 902 89 1229 -64 1600 -64 
C 1926 -64 2202 44 2432 268 
C 2803 620 3046 1363 3046 2137 
C 3046 3449 2464 4352 1626 4352 
z
M 1606 4185 
C 2144 4185 2432 3462 2432 2124 
C 2432 787 2150 102 1600 102 
C 1050 102 768 787 768 2118 
C 768 3475 1056 4185 1606 4185 
z
" transform="scale(0.015625)"/>
       </defs>
       <use xlink:href="#NimbusRomNo9L-Regu-30" transform="scale(0.996264)"/>
      </g>
     </g>
    </g>
    <g id="xtick_2">
     <g id="line2d_4">
      <path d="M 151.428094 516.824775 
L 151.428094 10.1 
" clip-path="url(#pf3c613230e)" style="fill: none; stroke: #b0b0b0; stroke-width: 0.5; stroke-linecap: square"/>
     </g>
     <g id="line2d_5">
      <g>
       <use xlink:href="#mfa3d58a5c4" x="151.428094" y="516.824775" style="stroke: #000000; stroke-width: 1.5"/>
      </g>
     </g>
     <g id="line2d_6">
      <g>
       <use xlink:href="#m4e107ed15d" x="151.428094" y="10.1" style="stroke: #000000; stroke-width: 1.5"/>
      </g>
     </g>
     <g id="text_2">
      <!-- $\mathdefault{5}$ -->
      <g transform="translate(146.446774 540.33393) scale(0.2 -0.2)">
       <defs>
        <path id="NimbusRomNo9L-Regu-35" d="M 1158 3718 
L 2413 3718 
C 2515 3718 2541 3731 2560 3775 
L 2803 4345 
L 2746 4390 
C 2650 4256 2586 4224 2451 4224 
L 1114 4224 
L 416 2717 
C 410 2705 410 2698 410 2686 
C 410 2654 435 2635 486 2635 
C 691 2635 947 2591 1210 2508 
C 1946 2274 2285 1882 2285 1255 
C 2285 647 1894 172 1395 172 
C 1267 172 1158 217 966 356 
C 762 502 614 565 480 565 
C 294 565 205 489 205 331 
C 205 89 506 -64 986 -64 
C 1523 -64 1984 108 2304 432 
C 2598 717 2733 1078 2733 1559 
C 2733 2015 2611 2306 2291 2622 
C 2010 2901 1645 3047 890 3180 
L 1158 3718 
z
" transform="scale(0.015625)"/>
       </defs>
       <use xlink:href="#NimbusRomNo9L-Regu-35" transform="scale(0.996264)"/>
      </g>
     </g>
    </g>
    <g id="xtick_3">
     <g id="line2d_7">
      <path d="M 224.751683 516.824775 
L 224.751683 10.1 
" clip-path="url(#pf3c613230e)" style="fill: none; stroke: #b0b0b0; stroke-width: 0.5; stroke-linecap: square"/>
     </g>
     <g id="line2d_8">
      <g>
       <use xlink:href="#mfa3d58a5c4" x="224.751683" y="516.824775" style="stroke: #000000; stroke-width: 1.5"/>
      </g>
     </g>
     <g id="line2d_9">
      <g>
       <use xlink:href="#m4e107ed15d" x="224.751683" y="10.1" style="stroke: #000000; stroke-width: 1.5"/>
      </g>
     </g>
     <g id="text_3">
      <!-- $\mathdefault{10}$ -->
      <g transform="translate(214.789043 540.33393) scale(0.2 -0.2)">
       <defs>
        <path id="NimbusRomNo9L-Regu-31" d="M 1862 4352 
L 710 3776 
L 710 3686 
C 787 3718 858 3743 883 3756 
C 998 3801 1107 3826 1171 3826 
C 1306 3826 1363 3731 1363 3525 
L 1363 599 
C 1363 386 1312 238 1210 179 
C 1114 121 1024 102 755 96 
L 755 0 
L 2522 0 
L 2522 96 
C 2016 102 1914 167 1914 477 
L 1914 4339 
L 1862 4352 
z
" transform="scale(0.015625)"/>
       </defs>
       <use xlink:href="#NimbusRomNo9L-Regu-31" transform="scale(0.996264)"/>
       <use xlink:href="#NimbusRomNo9L-Regu-30" transform="translate(49.8132 0) scale(0.996264)"/>
      </g>
     </g>
    </g>
    <g id="xtick_4">
     <g id="line2d_10">
      <path d="M 298.075272 516.824775 
L 298.075272 10.1 
" clip-path="url(#pf3c613230e)" style="fill: none; stroke: #b0b0b0; stroke-width: 0.5; stroke-linecap: square"/>
     </g>
     <g id="line2d_11">
      <g>
       <use xlink:href="#mfa3d58a5c4" x="298.075272" y="516.824775" style="stroke: #000000; stroke-width: 1.5"/>
      </g>
     </g>
     <g id="line2d_12">
      <g>
       <use xlink:href="#m4e107ed15d" x="298.075272" y="10.1" style="stroke: #000000; stroke-width: 1.5"/>
      </g>
     </g>
     <g id="text_4">
      <!-- $\mathdefault{15}$ -->
      <g transform="translate(288.112632 540.33393) scale(0.2 -0.2)">
       <use xlink:href="#NimbusRomNo9L-Regu-31" transform="scale(0.996264)"/>
       <use xlink:href="#NimbusRomNo9L-Regu-35" transform="translate(49.8132 0) scale(0.996264)"/>
      </g>
     </g>
    </g>
    <g id="xtick_5">
     <g id="line2d_13">
      <path d="M 371.398861 516.824775 
L 371.398861 10.1 
" clip-path="url(#pf3c613230e)" style="fill: none; stroke: #b0b0b0; stroke-width: 0.5; stroke-linecap: square"/>
     </g>
     <g id="line2d_14">
      <g>
       <use xlink:href="#mfa3d58a5c4" x="371.398861" y="516.824775" style="stroke: #000000; stroke-width: 1.5"/>
      </g>
     </g>
     <g id="line2d_15">
      <g>
       <use xlink:href="#m4e107ed15d" x="371.398861" y="10.1" style="stroke: #000000; stroke-width: 1.5"/>
      </g>
     </g>
     <g id="text_5">
      <!-- $\mathdefault{20}$ -->
      <g transform="translate(361.436221 540.33393) scale(0.2 -0.2)">
       <defs>
        <path id="NimbusRomNo9L-Regu-32" d="M 3040 879 
L 2957 912 
C 2720 544 2637 486 2349 486 
L 819 486 
L 1894 1621 
C 2464 2221 2714 2711 2714 3214 
C 2714 3858 2195 4352 1530 4352 
C 1178 4352 845 4211 608 3955 
C 403 3736 307 3530 198 3072 
L 333 3039 
C 589 3671 819 3878 1261 3878 
C 1798 3878 2163 3510 2163 2969 
C 2163 2466 1869 1866 1331 1292 
L 192 76 
L 192 0 
L 2688 0 
L 3040 879 
z
" transform="scale(0.015625)"/>
       </defs>
       <use xlink:href="#NimbusRomNo9L-Regu-32" transform="scale(0.996264)"/>
       <use xlink:href="#NimbusRomNo9L-Regu-30" transform="translate(49.8132 0) scale(0.996264)"/>
      </g>
     </g>
    </g>
    <g id="xtick_6">
     <g id="line2d_16">
      <path d="M 444.72245 516.824775 
L 444.72245 10.1 
" clip-path="url(#pf3c613230e)" style="fill: none; stroke: #b0b0b0; stroke-width: 0.5; stroke-linecap: square"/>
     </g>
     <g id="line2d_17">
      <g>
       <use xlink:href="#mfa3d58a5c4" x="444.72245" y="516.824775" style="stroke: #000000; stroke-width: 1.5"/>
      </g>
     </g>
     <g id="line2d_18">
      <g>
       <use xlink:href="#m4e107ed15d" x="444.72245" y="10.1" style="stroke: #000000; stroke-width: 1.5"/>
      </g>
     </g>
     <g id="text_6">
      <!-- $\mathdefault{25}$ -->
      <g transform="translate(434.75981 540.33393) scale(0.2 -0.2)">
       <use xlink:href="#NimbusRomNo9L-Regu-32" transform="scale(0.996264)"/>
       <use xlink:href="#NimbusRomNo9L-Regu-35" transform="translate(49.8132 0) scale(0.996264)"/>
      </g>
     </g>
    </g>
    <g id="xtick_7">
     <g id="line2d_19">
      <path d="M 518.046039 516.824775 
L 518.046039 10.1 
" clip-path="url(#pf3c613230e)" style="fill: none; stroke: #b0b0b0; stroke-width: 0.5; stroke-linecap: square"/>
     </g>
     <g id="line2d_20">
      <g>
       <use xlink:href="#mfa3d58a5c4" x="518.046039" y="516.824775" style="stroke: #000000; stroke-width: 1.5"/>
      </g>
     </g>
     <g id="line2d_21">
      <g>
       <use xlink:href="#m4e107ed15d" x="518.046039" y="10.1" style="stroke: #000000; stroke-width: 1.5"/>
      </g>
     </g>
     <g id="text_7">
      <!-- $\mathdefault{30}$ -->
      <g transform="translate(508.083399 540.33393) scale(0.2 -0.2)">
       <defs>
        <path id="NimbusRomNo9L-Regu-33" d="M 979 2137 
C 1357 2137 1504 2124 1658 2067 
C 2054 1926 2304 1561 2304 1120 
C 2304 582 1939 166 1466 166 
C 1293 166 1165 211 928 364 
C 736 480 627 524 518 524 
C 371 524 275 435 275 300 
C 275 76 550 -64 998 -64 
C 1491 -64 1997 102 2298 364 
C 2598 627 2765 998 2765 1427 
C 2765 1753 2662 2054 2477 2252 
C 2349 2393 2227 2470 1946 2592 
C 2387 2892 2547 3129 2547 3475 
C 2547 3993 2138 4352 1549 4352 
C 1229 4352 947 4243 717 4038 
C 525 3865 429 3699 288 3315 
L 384 3289 
C 646 3757 934 3967 1338 3967 
C 1754 3967 2042 3686 2042 3283 
C 2042 3052 1946 2822 1786 2662 
C 1594 2470 1414 2374 979 2220 
L 979 2137 
z
" transform="scale(0.015625)"/>
       </defs>
       <use xlink:href="#NimbusRomNo9L-Regu-33" transform="scale(0.996264)"/>
       <use xlink:href="#NimbusRomNo9L-Regu-30" transform="translate(49.8132 0) scale(0.996264)"/>
      </g>
     </g>
    </g>
    <g id="xtick_8">
     <g id="line2d_22">
      <path d="M 63.439787 516.824775 
L 63.439787 10.1 
" clip-path="url(#pf3c613230e)" style="fill: none; stroke: #b0b0b0; stroke-width: 0.5; stroke-linecap: square"/>
     </g>
     <g id="line2d_23">
      <defs>
       <path id="md26e80b5e5" d="M 0 0 
L 0 4 
" style="stroke: #000000; stroke-width: 0.5"/>
      </defs>
      <g>
       <use xlink:href="#md26e80b5e5" x="63.439787" y="516.824775" style="stroke: #000000; stroke-width: 0.5"/>
      </g>
     </g>
     <g id="line2d_24">
      <defs>
       <path id="me7cec9e51d" d="M 0 0 
L 0 -4 
" style="stroke: #000000; stroke-width: 0.5"/>
      </defs>
      <g>
       <use xlink:href="#me7cec9e51d" x="63.439787" y="10.1" style="stroke: #000000; stroke-width: 0.5"/>
      </g>
     </g>
    </g>
    <g id="xtick_9">
     <g id="line2d_25">
      <path d="M 92.769222 516.824775 
L 92.769222 10.1 
" clip-path="url(#pf3c613230e)" style="fill: none; stroke: #b0b0b0; stroke-width: 0.5; stroke-linecap: square"/>
     </g>
     <g id="line2d_26">
      <g>
       <use xlink:href="#md26e80b5e5" x="92.769222" y="516.824775" style="stroke: #000000; stroke-width: 0.5"/>
      </g>
     </g>
     <g id="line2d_27">
      <g>
       <use xlink:href="#me7cec9e51d" x="92.769222" y="10.1" style="stroke: #000000; stroke-width: 0.5"/>
      </g>
     </g>
    </g>
    <g id="xtick_10">
     <g id="line2d_28">
      <path d="M 107.43394 516.824775 
L 107.43394 10.1 
" clip-path="url(#pf3c613230e)" style="fill: none; stroke: #b0b0b0; stroke-width: 0.5; stroke-linecap: square"/>
     </g>
     <g id="line2d_29">
      <g>
       <use xlink:href="#md26e80b5e5" x="107.43394" y="516.824775" style="stroke: #000000; stroke-width: 0.5"/>
      </g>
     </g>
     <g id="line2d_30">
      <g>
       <use xlink:href="#me7cec9e51d" x="107.43394" y="10.1" style="stroke: #000000; stroke-width: 0.5"/>
      </g>
     </g>
    </g>
    <g id="xtick_11">
     <g id="line2d_31">
      <path d="M 122.098658 516.824775 
L 122.098658 10.1 
" clip-path="url(#pf3c613230e)" style="fill: none; stroke: #b0b0b0; stroke-width: 0.5; stroke-linecap: square"/>
     </g>
     <g id="line2d_32">
      <g>
       <use xlink:href="#md26e80b5e5" x="122.098658" y="516.824775" style="stroke: #000000; stroke-width: 0.5"/>
      </g>
     </g>
     <g id="line2d_33">
      <g>
       <use xlink:href="#me7cec9e51d" x="122.098658" y="10.1" style="stroke: #000000; stroke-width: 0.5"/>
      </g>
     </g>
    </g>
    <g id="xtick_12">
     <g id="line2d_34">
      <path d="M 136.763376 516.824775 
L 136.763376 10.1 
" clip-path="url(#pf3c613230e)" style="fill: none; stroke: #b0b0b0; stroke-width: 0.5; stroke-linecap: square"/>
     </g>
     <g id="line2d_35">
      <g>
       <use xlink:href="#md26e80b5e5" x="136.763376" y="516.824775" style="stroke: #000000; stroke-width: 0.5"/>
      </g>
     </g>
     <g id="line2d_36">
      <g>
       <use xlink:href="#me7cec9e51d" x="136.763376" y="10.1" style="stroke: #000000; stroke-width: 0.5"/>
      </g>
     </g>
    </g>
    <g id="xtick_13">
     <g id="line2d_37">
      <path d="M 166.092811 516.824775 
L 166.092811 10.1 
" clip-path="url(#pf3c613230e)" style="fill: none; stroke: #b0b0b0; stroke-width: 0.5; stroke-linecap: square"/>
     </g>
     <g id="line2d_38">
      <g>
       <use xlink:href="#md26e80b5e5" x="166.092811" y="516.824775" style="stroke: #000000; stroke-width: 0.5"/>
      </g>
     </g>
     <g id="line2d_39">
      <g>
       <use xlink:href="#me7cec9e51d" x="166.092811" y="10.1" style="stroke: #000000; stroke-width: 0.5"/>
      </g>
     </g>
    </g>
    <g id="xtick_14">
     <g id="line2d_40">
      <path d="M 180.757529 516.824775 
L 180.757529 10.1 
" clip-path="url(#pf3c613230e)" style="fill: none; stroke: #b0b0b0; stroke-width: 0.5; stroke-linecap: square"/>
     </g>
     <g id="line2d_41">
      <g>
       <use xlink:href="#md26e80b5e5" x="180.757529" y="516.824775" style="stroke: #000000; stroke-width: 0.5"/>
      </g>
     </g>
     <g id="line2d_42">
      <g>
       <use xlink:href="#me7cec9e51d" x="180.757529" y="10.1" style="stroke: #000000; stroke-width: 0.5"/>
      </g>
     </g>
    </g>
    <g id="xtick_15">
     <g id="line2d_43">
      <path d="M 195.422247 516.824775 
L 195.422247 10.1 
" clip-path="url(#pf3c613230e)" style="fill: none; stroke: #b0b0b0; stroke-width: 0.5; stroke-linecap: square"/>
     </g>
     <g id="line2d_44">
      <g>
       <use xlink:href="#md26e80b5e5" x="195.422247" y="516.824775" style="stroke: #000000; stroke-width: 0.5"/>
      </g>
     </g>
     <g id="line2d_45">
      <g>
       <use xlink:href="#me7cec9e51d" x="195.422247" y="10.1" style="stroke: #000000; stroke-width: 0.5"/>
      </g>
     </g>
    </g>
    <g id="xtick_16">
     <g id="line2d_46">
      <path d="M 210.086965 516.824775 
L 210.086965 10.1 
" clip-path="url(#pf3c613230e)" style="fill: none; stroke: #b0b0b0; stroke-width: 0.5; stroke-linecap: square"/>
     </g>
     <g id="line2d_47">
      <g>
       <use xlink:href="#md26e80b5e5" x="210.086965" y="516.824775" style="stroke: #000000; stroke-width: 0.5"/>
      </g>
     </g>
     <g id="line2d_48">
      <g>
       <use xlink:href="#me7cec9e51d" x="210.086965" y="10.1" style="stroke: #000000; stroke-width: 0.5"/>
      </g>
     </g>
    </g>
    <g id="xtick_17">
     <g id="line2d_49">
      <path d="M 239.416401 516.824775 
L 239.416401 10.1 
" clip-path="url(#pf3c613230e)" style="fill: none; stroke: #b0b0b0; stroke-width: 0.5; stroke-linecap: square"/>
     </g>
     <g id="line2d_50">
      <g>
       <use xlink:href="#md26e80b5e5" x="239.416401" y="516.824775" style="stroke: #000000; stroke-width: 0.5"/>
      </g>
     </g>
     <g id="line2d_51">
      <g>
       <use xlink:href="#me7cec9e51d" x="239.416401" y="10.1" style="stroke: #000000; stroke-width: 0.5"/>
      </g>
     </g>
    </g>
    <g id="xtick_18">
     <g id="line2d_52">
      <path d="M 254.081118 516.824775 
L 254.081118 10.1 
" clip-path="url(#pf3c613230e)" style="fill: none; stroke: #b0b0b0; stroke-width: 0.5; stroke-linecap: square"/>
     </g>
     <g id="line2d_53">
      <g>
       <use xlink:href="#md26e80b5e5" x="254.081118" y="516.824775" style="stroke: #000000; stroke-width: 0.5"/>
      </g>
     </g>
     <g id="line2d_54">
      <g>
       <use xlink:href="#me7cec9e51d" x="254.081118" y="10.1" style="stroke: #000000; stroke-width: 0.5"/>
      </g>
     </g>
    </g>
    <g id="xtick_19">
     <g id="line2d_55">
      <path d="M 268.745836 516.824775 
L 268.745836 10.1 
" clip-path="url(#pf3c613230e)" style="fill: none; stroke: #b0b0b0; stroke-width: 0.5; stroke-linecap: square"/>
     </g>
     <g id="line2d_56">
      <g>
       <use xlink:href="#md26e80b5e5" x="268.745836" y="516.824775" style="stroke: #000000; stroke-width: 0.5"/>
      </g>
     </g>
     <g id="line2d_57">
      <g>
       <use xlink:href="#me7cec9e51d" x="268.745836" y="10.1" style="stroke: #000000; stroke-width: 0.5"/>
      </g>
     </g>
    </g>
    <g id="xtick_20">
     <g id="line2d_58">
      <path d="M 283.410554 516.824775 
L 283.410554 10.1 
" clip-path="url(#pf3c613230e)" style="fill: none; stroke: #b0b0b0; stroke-width: 0.5; stroke-linecap: square"/>
     </g>
     <g id="line2d_59">
      <g>
       <use xlink:href="#md26e80b5e5" x="283.410554" y="516.824775" style="stroke: #000000; stroke-width: 0.5"/>
      </g>
     </g>
     <g id="line2d_60">
      <g>
       <use xlink:href="#me7cec9e51d" x="283.410554" y="10.1" style="stroke: #000000; stroke-width: 0.5"/>
      </g>
     </g>
    </g>
    <g id="xtick_21">
     <g id="line2d_61">
      <path d="M 312.73999 516.824775 
L 312.73999 10.1 
" clip-path="url(#pf3c613230e)" style="fill: none; stroke: #b0b0b0; stroke-width: 0.5; stroke-linecap: square"/>
     </g>
     <g id="line2d_62">
      <g>
       <use xlink:href="#md26e80b5e5" x="312.73999" y="516.824775" style="stroke: #000000; stroke-width: 0.5"/>
      </g>
     </g>
     <g id="line2d_63">
      <g>
       <use xlink:href="#me7cec9e51d" x="312.73999" y="10.1" style="stroke: #000000; stroke-width: 0.5"/>
      </g>
     </g>
    </g>
    <g id="xtick_22">
     <g id="line2d_64">
      <path d="M 327.404707 516.824775 
L 327.404707 10.1 
" clip-path="url(#pf3c613230e)" style="fill: none; stroke: #b0b0b0; stroke-width: 0.5; stroke-linecap: square"/>
     </g>
     <g id="line2d_65">
      <g>
       <use xlink:href="#md26e80b5e5" x="327.404707" y="516.824775" style="stroke: #000000; stroke-width: 0.5"/>
      </g>
     </g>
     <g id="line2d_66">
      <g>
       <use xlink:href="#me7cec9e51d" x="327.404707" y="10.1" style="stroke: #000000; stroke-width: 0.5"/>
      </g>
     </g>
    </g>
    <g id="xtick_23">
     <g id="line2d_67">
      <path d="M 342.069425 516.824775 
L 342.069425 10.1 
" clip-path="url(#pf3c613230e)" style="fill: none; stroke: #b0b0b0; stroke-width: 0.5; stroke-linecap: square"/>
     </g>
     <g id="line2d_68">
      <g>
       <use xlink:href="#md26e80b5e5" x="342.069425" y="516.824775" style="stroke: #000000; stroke-width: 0.5"/>
      </g>
     </g>
     <g id="line2d_69">
      <g>
       <use xlink:href="#me7cec9e51d" x="342.069425" y="10.1" style="stroke: #000000; stroke-width: 0.5"/>
      </g>
     </g>
    </g>
    <g id="xtick_24">
     <g id="line2d_70">
      <path d="M 356.734143 516.824775 
L 356.734143 10.1 
" clip-path="url(#pf3c613230e)" style="fill: none; stroke: #b0b0b0; stroke-width: 0.5; stroke-linecap: square"/>
     </g>
     <g id="line2d_71">
      <g>
       <use xlink:href="#md26e80b5e5" x="356.734143" y="516.824775" style="stroke: #000000; stroke-width: 0.5"/>
      </g>
     </g>
     <g id="line2d_72">
      <g>
       <use xlink:href="#me7cec9e51d" x="356.734143" y="10.1" style="stroke: #000000; stroke-width: 0.5"/>
      </g>
     </g>
    </g>
    <g id="xtick_25">
     <g id="line2d_73">
      <path d="M 386.063579 516.824775 
L 386.063579 10.1 
" clip-path="url(#pf3c613230e)" style="fill: none; stroke: #b0b0b0; stroke-width: 0.5; stroke-linecap: square"/>
     </g>
     <g id="line2d_74">
      <g>
       <use xlink:href="#md26e80b5e5" x="386.063579" y="516.824775" style="stroke: #000000; stroke-width: 0.5"/>
      </g>
     </g>
     <g id="line2d_75">
      <g>
       <use xlink:href="#me7cec9e51d" x="386.063579" y="10.1" style="stroke: #000000; stroke-width: 0.5"/>
      </g>
     </g>
    </g>
    <g id="xtick_26">
     <g id="line2d_76">
      <path d="M 400.728296 516.824775 
L 400.728296 10.1 
" clip-path="url(#pf3c613230e)" style="fill: none; stroke: #b0b0b0; stroke-width: 0.5; stroke-linecap: square"/>
     </g>
     <g id="line2d_77">
      <g>
       <use xlink:href="#md26e80b5e5" x="400.728296" y="516.824775" style="stroke: #000000; stroke-width: 0.5"/>
      </g>
     </g>
     <g id="line2d_78">
      <g>
       <use xlink:href="#me7cec9e51d" x="400.728296" y="10.1" style="stroke: #000000; stroke-width: 0.5"/>
      </g>
     </g>
    </g>
    <g id="xtick_27">
     <g id="line2d_79">
      <path d="M 415.393014 516.824775 
L 415.393014 10.1 
" clip-path="url(#pf3c613230e)" style="fill: none; stroke: #b0b0b0; stroke-width: 0.5; stroke-linecap: square"/>
     </g>
     <g id="line2d_80">
      <g>
       <use xlink:href="#md26e80b5e5" x="415.393014" y="516.824775" style="stroke: #000000; stroke-width: 0.5"/>
      </g>
     </g>
     <g id="line2d_81">
      <g>
       <use xlink:href="#me7cec9e51d" x="415.393014" y="10.1" style="stroke: #000000; stroke-width: 0.5"/>
      </g>
     </g>
    </g>
    <g id="xtick_28">
     <g id="line2d_82">
      <path d="M 430.057732 516.824775 
L 430.057732 10.1 
" clip-path="url(#pf3c613230e)" style="fill: none; stroke: #b0b0b0; stroke-width: 0.5; stroke-linecap: square"/>
     </g>
     <g id="line2d_83">
      <g>
       <use xlink:href="#md26e80b5e5" x="430.057732" y="516.824775" style="stroke: #000000; stroke-width: 0.5"/>
      </g>
     </g>
     <g id="line2d_84">
      <g>
       <use xlink:href="#me7cec9e51d" x="430.057732" y="10.1" style="stroke: #000000; stroke-width: 0.5"/>
      </g>
     </g>
    </g>
    <g id="xtick_29">
     <g id="line2d_85">
      <path d="M 459.387168 516.824775 
L 459.387168 10.1 
" clip-path="url(#pf3c613230e)" style="fill: none; stroke: #b0b0b0; stroke-width: 0.5; stroke-linecap: square"/>
     </g>
     <g id="line2d_86">
      <g>
       <use xlink:href="#md26e80b5e5" x="459.387168" y="516.824775" style="stroke: #000000; stroke-width: 0.5"/>
      </g>
     </g>
     <g id="line2d_87">
      <g>
       <use xlink:href="#me7cec9e51d" x="459.387168" y="10.1" style="stroke: #000000; stroke-width: 0.5"/>
      </g>
     </g>
    </g>
    <g id="xtick_30">
     <g id="line2d_88">
      <path d="M 474.051885 516.824775 
L 474.051885 10.1 
" clip-path="url(#pf3c613230e)" style="fill: none; stroke: #b0b0b0; stroke-width: 0.5; stroke-linecap: square"/>
     </g>
     <g id="line2d_89">
      <g>
       <use xlink:href="#md26e80b5e5" x="474.051885" y="516.824775" style="stroke: #000000; stroke-width: 0.5"/>
      </g>
     </g>
     <g id="line2d_90">
      <g>
       <use xlink:href="#me7cec9e51d" x="474.051885" y="10.1" style="stroke: #000000; stroke-width: 0.5"/>
      </g>
     </g>
    </g>
    <g id="xtick_31">
     <g id="line2d_91">
      <path d="M 488.716603 516.824775 
L 488.716603 10.1 
" clip-path="url(#pf3c613230e)" style="fill: none; stroke: #b0b0b0; stroke-width: 0.5; stroke-linecap: square"/>
     </g>
     <g id="line2d_92">
      <g>
       <use xlink:href="#md26e80b5e5" x="488.716603" y="516.824775" style="stroke: #000000; stroke-width: 0.5"/>
      </g>
     </g>
     <g id="line2d_93">
      <g>
       <use xlink:href="#me7cec9e51d" x="488.716603" y="10.1" style="stroke: #000000; stroke-width: 0.5"/>
      </g>
     </g>
    </g>
    <g id="xtick_32">
     <g id="line2d_94">
      <path d="M 503.381321 516.824775 
L 503.381321 10.1 
" clip-path="url(#pf3c613230e)" style="fill: none; stroke: #b0b0b0; stroke-width: 0.5; stroke-linecap: square"/>
     </g>
     <g id="line2d_95">
      <g>
       <use xlink:href="#md26e80b5e5" x="503.381321" y="516.824775" style="stroke: #000000; stroke-width: 0.5"/>
      </g>
     </g>
     <g id="line2d_96">
      <g>
       <use xlink:href="#me7cec9e51d" x="503.381321" y="10.1" style="stroke: #000000; stroke-width: 0.5"/>
      </g>
     </g>
    </g>
    <g id="xtick_33">
     <g id="line2d_97">
      <path d="M 532.710757 516.824775 
L 532.710757 10.1 
" clip-path="url(#pf3c613230e)" style="fill: none; stroke: #b0b0b0; stroke-width: 0.5; stroke-linecap: square"/>
     </g>
     <g id="line2d_98">
      <g>
       <use xlink:href="#md26e80b5e5" x="532.710757" y="516.824775" style="stroke: #000000; stroke-width: 0.5"/>
      </g>
     </g>
     <g id="line2d_99">
      <g>
       <use xlink:href="#me7cec9e51d" x="532.710757" y="10.1" style="stroke: #000000; stroke-width: 0.5"/>
      </g>
     </g>
    </g>
    <g id="xtick_34">
     <g id="line2d_100">
      <path d="M 547.375475 516.824775 
L 547.375475 10.1 
" clip-path="url(#pf3c613230e)" style="fill: none; stroke: #b0b0b0; stroke-width: 0.5; stroke-linecap: square"/>
     </g>
     <g id="line2d_101">
      <g>
       <use xlink:href="#md26e80b5e5" x="547.375475" y="516.824775" style="stroke: #000000; stroke-width: 0.5"/>
      </g>
     </g>
     <g id="line2d_102">
      <g>
       <use xlink:href="#me7cec9e51d" x="547.375475" y="10.1" style="stroke: #000000; stroke-width: 0.5"/>
      </g>
     </g>
    </g>
    <g id="xtick_35">
     <g id="line2d_103">
      <path d="M 562.040192 516.824775 
L 562.040192 10.1 
" clip-path="url(#pf3c613230e)" style="fill: none; stroke: #b0b0b0; stroke-width: 0.5; stroke-linecap: square"/>
     </g>
     <g id="line2d_104">
      <g>
       <use xlink:href="#md26e80b5e5" x="562.040192" y="516.824775" style="stroke: #000000; stroke-width: 0.5"/>
      </g>
     </g>
     <g id="line2d_105">
      <g>
       <use xlink:href="#me7cec9e51d" x="562.040192" y="10.1" style="stroke: #000000; stroke-width: 0.5"/>
      </g>
     </g>
    </g>
    <g id="text_8">
     <!-- $n$ -->
     <g transform="translate(302.833198 567.560399) scale(0.28 -0.28)">
      <defs>
       <path id="NimbusRomNo9L-ReguItal-6e" d="M 2944 742 
L 2810 575 
C 2624 339 2509 236 2419 236 
C 2368 236 2317 288 2317 339 
C 2317 384 2317 384 2406 742 
L 2771 2060 
C 2803 2195 2829 2335 2829 2425 
C 2829 2655 2656 2816 2406 2816 
C 1997 2816 1594 2431 934 1407 
L 1363 2803 
L 1344 2816 
C 998 2745 864 2719 307 2617 
L 307 2515 
C 634 2508 717 2470 717 2342 
C 717 2303 710 2265 704 2233 
L 90 -7 
L 570 -7 
C 870 1004 928 1145 1210 1580 
C 1594 2169 1920 2489 2157 2489 
C 2253 2489 2310 2419 2310 2303 
C 2310 2227 2272 2015 2221 1817 
L 1939 761 
C 1856 435 1837 345 1837 281 
C 1837 38 1926 -64 2138 -64 
C 2426 -64 2592 70 3034 659 
L 2944 742 
z
" transform="scale(0.015625)"/>
      </defs>
      <use xlink:href="#NimbusRomNo9L-ReguItal-6e" transform="scale(0.996264)"/>
     </g>
    </g>
   </g>
   <g id="matplotlib.axis_2">
    <g id="ytick_1">
     <g id="line2d_106">
      <path d="M 52.514572 516.824775 
L 567.09952 516.824775 
" clip-path="url(#pf3c613230e)" style="fill: none; stroke: #b0b0b0; stroke-width: 0.5; stroke-linecap: square"/>
     </g>
     <g id="line2d_107">
      <defs>
       <path id="m527e5f25de" d="M 0 0 
L -6.5 0 
" style="stroke: #000000; stroke-width: 1.5"/>
      </defs>
      <g>
       <use xlink:href="#m527e5f25de" x="52.514572" y="516.824775" style="stroke: #000000; stroke-width: 1.5"/>
      </g>
     </g>
     <g id="line2d_108">
      <defs>
       <path id="me820543bee" d="M 0 0 
L 6.5 0 
" style="stroke: #000000; stroke-width: 1.5"/>
      </defs>
      <g>
       <use xlink:href="#me820543bee" x="567.09952" y="516.824775" style="stroke: #000000; stroke-width: 1.5"/>
      </g>
     </g>
     <g id="text_9">
      <!-- $\mathdefault{0}$ -->
      <g transform="translate(32.551932 523.579353) scale(0.2 -0.2)">
       <use xlink:href="#NimbusRomNo9L-Regu-30" transform="scale(0.996264)"/>
      </g>
     </g>
    </g>
    <g id="ytick_2">
     <g id="line2d_109">
      <path d="M 52.514572 407.342242 
L 567.09952 407.342242 
" clip-path="url(#pf3c613230e)" style="fill: none; stroke: #b0b0b0; stroke-width: 0.5; stroke-linecap: square"/>
     </g>
     <g id="line2d_110">
      <g>
       <use xlink:href="#m527e5f25de" x="52.514572" y="407.342242" style="stroke: #000000; stroke-width: 1.5"/>
      </g>
     </g>
     <g id="line2d_111">
      <g>
       <use xlink:href="#me820543bee" x="567.09952" y="407.342242" style="stroke: #000000; stroke-width: 1.5"/>
      </g>
     </g>
     <g id="text_10">
      <!-- $\mathdefault{2}$ -->
      <g transform="translate(32.551932 414.096819) scale(0.2 -0.2)">
       <use xlink:href="#NimbusRomNo9L-Regu-32" transform="scale(0.996264)"/>
      </g>
     </g>
    </g>
    <g id="ytick_3">
     <g id="line2d_112">
      <path d="M 52.514572 297.859708 
L 567.09952 297.859708 
" clip-path="url(#pf3c613230e)" style="fill: none; stroke: #b0b0b0; stroke-width: 0.5; stroke-linecap: square"/>
     </g>
     <g id="line2d_113">
      <g>
       <use xlink:href="#m527e5f25de" x="52.514572" y="297.859708" style="stroke: #000000; stroke-width: 1.5"/>
      </g>
     </g>
     <g id="line2d_114">
      <g>
       <use xlink:href="#me820543bee" x="567.09952" y="297.859708" style="stroke: #000000; stroke-width: 1.5"/>
      </g>
     </g>
     <g id="text_11">
      <!-- $\mathdefault{4}$ -->
      <g transform="translate(32.551932 304.614286) scale(0.2 -0.2)">
       <defs>
        <path id="NimbusRomNo9L-Regu-34" d="M 3021 1497 
L 2368 1497 
L 2368 4352 
L 2086 4352 
L 77 1497 
L 77 1088 
L 1875 1088 
L 1875 0 
L 2368 0 
L 2368 1088 
L 3021 1088 
L 3021 1497 
z
M 1869 1497 
L 333 1497 
L 1869 3697 
L 1869 1497 
z
" transform="scale(0.015625)"/>
       </defs>
       <use xlink:href="#NimbusRomNo9L-Regu-34" transform="scale(0.996264)"/>
      </g>
     </g>
    </g>
    <g id="ytick_4">
     <g id="line2d_115">
      <path d="M 52.514572 188.377175 
L 567.09952 188.377175 
" clip-path="url(#pf3c613230e)" style="fill: none; stroke: #b0b0b0; stroke-width: 0.5; stroke-linecap: square"/>
     </g>
     <g id="line2d_116">
      <g>
       <use xlink:href="#m527e5f25de" x="52.514572" y="188.377175" style="stroke: #000000; stroke-width: 1.5"/>
      </g>
     </g>
     <g id="line2d_117">
      <g>
       <use xlink:href="#me820543bee" x="567.09952" y="188.377175" style="stroke: #000000; stroke-width: 1.5"/>
      </g>
     </g>
     <g id="text_12">
      <!-- $\mathdefault{6}$ -->
      <g transform="translate(32.551932 195.131752) scale(0.2 -0.2)">
       <defs>
        <path id="NimbusRomNo9L-Regu-36" d="M 2854 4390 
C 2125 4326 1754 4204 1286 3878 
C 595 3385 218 2655 218 1801 
C 218 1248 390 688 666 369 
C 909 89 1254 -64 1651 -64 
C 2445 -64 2995 541 2995 1420 
C 2995 2234 2528 2752 1792 2752 
C 1510 2752 1376 2707 973 2463 
C 1146 3430 1862 4121 2867 4288 
L 2854 4390 
z
M 1549 2457 
C 2099 2457 2419 1999 2419 1203 
C 2419 503 2170 115 1722 115 
C 1158 115 813 713 813 1700 
C 813 2024 864 2203 992 2298 
C 1126 2400 1325 2457 1549 2457 
z
" transform="scale(0.015625)"/>
       </defs>
       <use xlink:href="#NimbusRomNo9L-Regu-36" transform="scale(0.996264)"/>
      </g>
     </g>
    </g>
    <g id="ytick_5">
     <g id="line2d_118">
      <path d="M 52.514572 78.894641 
L 567.09952 78.894641 
" clip-path="url(#pf3c613230e)" style="fill: none; stroke: #b0b0b0; stroke-width: 0.5; stroke-linecap: square"/>
     </g>
     <g id="line2d_119">
      <g>
       <use xlink:href="#m527e5f25de" x="52.514572" y="78.894641" style="stroke: #000000; stroke-width: 1.5"/>
      </g>
     </g>
     <g id="line2d_120">
      <g>
       <use xlink:href="#me820543bee" x="567.09952" y="78.894641" style="stroke: #000000; stroke-width: 1.5"/>
      </g>
     </g>
     <g id="text_13">
      <!-- $\mathdefault{8}$ -->
      <g transform="translate(32.551932 85.649219) scale(0.2 -0.2)">
       <defs>
        <path id="NimbusRomNo9L-Regu-38" d="M 1856 2400 
C 2490 2739 2714 3008 2714 3443 
C 2714 3968 2253 4352 1613 4352 
C 915 4352 397 3923 397 3341 
C 397 2924 518 2739 1190 2150 
C 499 1625 358 1427 358 992 
C 358 371 864 -64 1587 -64 
C 2355 -64 2848 358 2848 1017 
C 2848 1510 2630 1824 1856 2400 
z
M 1741 1740 
C 2208 1408 2362 1177 2362 819 
C 2362 403 2074 115 1658 115 
C 1171 115 845 486 845 1043 
C 845 1452 986 1721 1357 2022 
L 1741 1740 
z
M 1670 2515 
C 1101 2886 870 3180 870 3539 
C 870 3910 1158 4172 1562 4172 
C 1997 4172 2272 3891 2272 3449 
C 2272 3084 2093 2796 1728 2553 
C 1696 2534 1696 2534 1670 2515 
z
" transform="scale(0.015625)"/>
       </defs>
       <use xlink:href="#NimbusRomNo9L-Regu-38" transform="scale(0.996264)"/>
      </g>
     </g>
    </g>
    <g id="ytick_6">
     <g id="line2d_121">
      <path d="M 52.514572 489.454142 
L 567.09952 489.454142 
" clip-path="url(#pf3c613230e)" style="fill: none; stroke: #b0b0b0; stroke-width: 0.5; stroke-linecap: square"/>
     </g>
     <g id="line2d_122">
      <defs>
       <path id="m95865d6512" d="M 0 0 
L -4 0 
" style="stroke: #000000; stroke-width: 0.5"/>
      </defs>
      <g>
       <use xlink:href="#m95865d6512" x="52.514572" y="489.454142" style="stroke: #000000; stroke-width: 0.5"/>
      </g>
     </g>
     <g id="line2d_123">
      <defs>
       <path id="m17f1c92d7b" d="M 0 0 
L 4 0 
" style="stroke: #000000; stroke-width: 0.5"/>
      </defs>
      <g>
       <use xlink:href="#m17f1c92d7b" x="567.09952" y="489.454142" style="stroke: #000000; stroke-width: 0.5"/>
      </g>
     </g>
    </g>
    <g id="ytick_7">
     <g id="line2d_124">
      <path d="M 52.514572 462.083508 
L 567.09952 462.083508 
" clip-path="url(#pf3c613230e)" style="fill: none; stroke: #b0b0b0; stroke-width: 0.5; stroke-linecap: square"/>
     </g>
     <g id="line2d_125">
      <g>
       <use xlink:href="#m95865d6512" x="52.514572" y="462.083508" style="stroke: #000000; stroke-width: 0.5"/>
      </g>
     </g>
     <g id="line2d_126">
      <g>
       <use xlink:href="#m17f1c92d7b" x="567.09952" y="462.083508" style="stroke: #000000; stroke-width: 0.5"/>
      </g>
     </g>
    </g>
    <g id="ytick_8">
     <g id="line2d_127">
      <path d="M 52.514572 434.712875 
L 567.09952 434.712875 
" clip-path="url(#pf3c613230e)" style="fill: none; stroke: #b0b0b0; stroke-width: 0.5; stroke-linecap: square"/>
     </g>
     <g id="line2d_128">
      <g>
       <use xlink:href="#m95865d6512" x="52.514572" y="434.712875" style="stroke: #000000; stroke-width: 0.5"/>
      </g>
     </g>
     <g id="line2d_129">
      <g>
       <use xlink:href="#m17f1c92d7b" x="567.09952" y="434.712875" style="stroke: #000000; stroke-width: 0.5"/>
      </g>
     </g>
    </g>
    <g id="ytick_9">
     <g id="line2d_130">
      <path d="M 52.514572 379.971608 
L 567.09952 379.971608 
" clip-path="url(#pf3c613230e)" style="fill: none; stroke: #b0b0b0; stroke-width: 0.5; stroke-linecap: square"/>
     </g>
     <g id="line2d_131">
      <g>
       <use xlink:href="#m95865d6512" x="52.514572" y="379.971608" style="stroke: #000000; stroke-width: 0.5"/>
      </g>
     </g>
     <g id="line2d_132">
      <g>
       <use xlink:href="#m17f1c92d7b" x="567.09952" y="379.971608" style="stroke: #000000; stroke-width: 0.5"/>
      </g>
     </g>
    </g>
    <g id="ytick_10">
     <g id="line2d_133">
      <path d="M 52.514572 352.600975 
L 567.09952 352.600975 
" clip-path="url(#pf3c613230e)" style="fill: none; stroke: #b0b0b0; stroke-width: 0.5; stroke-linecap: square"/>
     </g>
     <g id="line2d_134">
      <g>
       <use xlink:href="#m95865d6512" x="52.514572" y="352.600975" style="stroke: #000000; stroke-width: 0.5"/>
      </g>
     </g>
     <g id="line2d_135">
      <g>
       <use xlink:href="#m17f1c92d7b" x="567.09952" y="352.600975" style="stroke: #000000; stroke-width: 0.5"/>
      </g>
     </g>
    </g>
    <g id="ytick_11">
     <g id="line2d_136">
      <path d="M 52.514572 325.230342 
L 567.09952 325.230342 
" clip-path="url(#pf3c613230e)" style="fill: none; stroke: #b0b0b0; stroke-width: 0.5; stroke-linecap: square"/>
     </g>
     <g id="line2d_137">
      <g>
       <use xlink:href="#m95865d6512" x="52.514572" y="325.230342" style="stroke: #000000; stroke-width: 0.5"/>
      </g>
     </g>
     <g id="line2d_138">
      <g>
       <use xlink:href="#m17f1c92d7b" x="567.09952" y="325.230342" style="stroke: #000000; stroke-width: 0.5"/>
      </g>
     </g>
    </g>
    <g id="ytick_12">
     <g id="line2d_139">
      <path d="M 52.514572 270.489075 
L 567.09952 270.489075 
" clip-path="url(#pf3c613230e)" style="fill: none; stroke: #b0b0b0; stroke-width: 0.5; stroke-linecap: square"/>
     </g>
     <g id="line2d_140">
      <g>
       <use xlink:href="#m95865d6512" x="52.514572" y="270.489075" style="stroke: #000000; stroke-width: 0.5"/>
      </g>
     </g>
     <g id="line2d_141">
      <g>
       <use xlink:href="#m17f1c92d7b" x="567.09952" y="270.489075" style="stroke: #000000; stroke-width: 0.5"/>
      </g>
     </g>
    </g>
    <g id="ytick_13">
     <g id="line2d_142">
      <path d="M 52.514572 243.118441 
L 567.09952 243.118441 
" clip-path="url(#pf3c613230e)" style="fill: none; stroke: #b0b0b0; stroke-width: 0.5; stroke-linecap: square"/>
     </g>
     <g id="line2d_143">
      <g>
       <use xlink:href="#m95865d6512" x="52.514572" y="243.118441" style="stroke: #000000; stroke-width: 0.5"/>
      </g>
     </g>
     <g id="line2d_144">
      <g>
       <use xlink:href="#m17f1c92d7b" x="567.09952" y="243.118441" style="stroke: #000000; stroke-width: 0.5"/>
      </g>
     </g>
    </g>
    <g id="ytick_14">
     <g id="line2d_145">
      <path d="M 52.514572 215.747808 
L 567.09952 215.747808 
" clip-path="url(#pf3c613230e)" style="fill: none; stroke: #b0b0b0; stroke-width: 0.5; stroke-linecap: square"/>
     </g>
     <g id="line2d_146">
      <g>
       <use xlink:href="#m95865d6512" x="52.514572" y="215.747808" style="stroke: #000000; stroke-width: 0.5"/>
      </g>
     </g>
     <g id="line2d_147">
      <g>
       <use xlink:href="#m17f1c92d7b" x="567.09952" y="215.747808" style="stroke: #000000; stroke-width: 0.5"/>
      </g>
     </g>
    </g>
    <g id="ytick_15">
     <g id="line2d_148">
      <path d="M 52.514572 161.006541 
L 567.09952 161.006541 
" clip-path="url(#pf3c613230e)" style="fill: none; stroke: #b0b0b0; stroke-width: 0.5; stroke-linecap: square"/>
     </g>
     <g id="line2d_149">
      <g>
       <use xlink:href="#m95865d6512" x="52.514572" y="161.006541" style="stroke: #000000; stroke-width: 0.5"/>
      </g>
     </g>
     <g id="line2d_150">
      <g>
       <use xlink:href="#m17f1c92d7b" x="567.09952" y="161.006541" style="stroke: #000000; stroke-width: 0.5"/>
      </g>
     </g>
    </g>
    <g id="ytick_16">
     <g id="line2d_151">
      <path d="M 52.514572 133.635908 
L 567.09952 133.635908 
" clip-path="url(#pf3c613230e)" style="fill: none; stroke: #b0b0b0; stroke-width: 0.5; stroke-linecap: square"/>
     </g>
     <g id="line2d_152">
      <g>
       <use xlink:href="#m95865d6512" x="52.514572" y="133.635908" style="stroke: #000000; stroke-width: 0.5"/>
      </g>
     </g>
     <g id="line2d_153">
      <g>
       <use xlink:href="#m17f1c92d7b" x="567.09952" y="133.635908" style="stroke: #000000; stroke-width: 0.5"/>
      </g>
     </g>
    </g>
    <g id="ytick_17">
     <g id="line2d_154">
      <path d="M 52.514572 106.265275 
L 567.09952 106.265275 
" clip-path="url(#pf3c613230e)" style="fill: none; stroke: #b0b0b0; stroke-width: 0.5; stroke-linecap: square"/>
     </g>
     <g id="line2d_155">
      <g>
       <use xlink:href="#m95865d6512" x="52.514572" y="106.265275" style="stroke: #000000; stroke-width: 0.5"/>
      </g>
     </g>
     <g id="line2d_156">
      <g>
       <use xlink:href="#m17f1c92d7b" x="567.09952" y="106.265275" style="stroke: #000000; stroke-width: 0.5"/>
      </g>
     </g>
    </g>
    <g id="ytick_18">
     <g id="line2d_157">
      <path d="M 52.514572 51.524008 
L 567.09952 51.524008 
" clip-path="url(#pf3c613230e)" style="fill: none; stroke: #b0b0b0; stroke-width: 0.5; stroke-linecap: square"/>
     </g>
     <g id="line2d_158">
      <g>
       <use xlink:href="#m95865d6512" x="52.514572" y="51.524008" style="stroke: #000000; stroke-width: 0.5"/>
      </g>
     </g>
     <g id="line2d_159">
      <g>
       <use xlink:href="#m17f1c92d7b" x="567.09952" y="51.524008" style="stroke: #000000; stroke-width: 0.5"/>
      </g>
     </g>
    </g>
    <g id="ytick_19">
     <g id="line2d_160">
      <path d="M 52.514572 24.153375 
L 567.09952 24.153375 
" clip-path="url(#pf3c613230e)" style="fill: none; stroke: #b0b0b0; stroke-width: 0.5; stroke-linecap: square"/>
     </g>
     <g id="line2d_161">
      <g>
       <use xlink:href="#m95865d6512" x="52.514572" y="24.153375" style="stroke: #000000; stroke-width: 0.5"/>
      </g>
     </g>
     <g id="line2d_162">
      <g>
       <use xlink:href="#m17f1c92d7b" x="567.09952" y="24.153375" style="stroke: #000000; stroke-width: 0.5"/>
      </g>
     </g>
    </g>
    <g id="text_14">
     <!-- Improvement (mean time) -->
     <g transform="translate(22.512811 409.465573) rotate(-90) scale(0.28 -0.28)">
      <defs>
       <path id="NimbusRomNo9L-Regu-49" d="M 736 695 
C 736 217 653 140 115 121 
L 115 0 
L 2016 0 
L 2016 121 
C 1491 140 1389 230 1389 695 
L 1389 3528 
C 1389 3994 1478 4077 2016 4102 
L 2016 4224 
L 115 4224 
L 115 4102 
C 659 4070 736 4000 736 3528 
L 736 695 
z
" transform="scale(0.015625)"/>
       <path id="NimbusRomNo9L-Regu-6d" d="M 122 2547 
C 205 2566 256 2572 326 2572 
C 493 2572 550 2470 550 2163 
L 550 544 
C 550 198 461 102 102 96 
L 102 0 
L 1523 0 
L 1523 96 
C 1184 108 1088 179 1088 428 
L 1088 2233 
C 1088 2246 1139 2310 1184 2355 
C 1344 2502 1619 2611 1843 2611 
C 2125 2611 2266 2387 2266 1939 
L 2266 550 
C 2266 192 2195 121 1830 96 
L 1830 0 
L 3264 0 
L 3264 96 
C 2899 102 2803 211 2803 608 
L 2803 2220 
C 2995 2496 3206 2611 3501 2611 
C 3866 2611 3981 2438 3981 1907 
L 3981 556 
C 3981 192 3930 140 3558 96 
L 3558 0 
L 4960 0 
L 4960 96 
L 4794 108 
C 4602 121 4518 236 4518 486 
L 4518 1804 
C 4518 2560 4269 2944 3776 2944 
C 3405 2944 3078 2777 2733 2406 
C 2618 2771 2400 2944 2054 2944 
C 1773 2944 1594 2854 1062 2451 
L 1062 2931 
L 1018 2944 
C 691 2822 474 2751 122 2655 
L 122 2547 
z
" transform="scale(0.015625)"/>
       <path id="NimbusRomNo9L-Regu-70" d="M 58 2515 
C 115 2521 160 2521 218 2521 
C 435 2521 480 2457 480 2157 
L 480 -839 
C 480 -1172 410 -1242 32 -1280 
L 32 -1389 
L 1581 -1389 
L 1581 -1280 
C 1101 -1274 1018 -1203 1018 -798 
L 1018 211 
C 1242 0 1395 -64 1664 -64 
C 2419 -64 3008 652 3008 1580 
C 3008 2374 2560 2944 1939 2944 
C 1581 2944 1299 2783 1018 2438 
L 1018 2931 
L 979 2944 
C 634 2809 410 2726 58 2617 
L 58 2515 
z
M 1018 2137 
C 1018 2329 1376 2559 1670 2559 
C 2144 2559 2458 2073 2458 1331 
C 2458 620 2144 140 1683 140 
C 1382 140 1018 371 1018 563 
L 1018 2137 
z
" transform="scale(0.015625)"/>
       <path id="NimbusRomNo9L-Regu-72" d="M 45 2496 
C 134 2515 192 2521 269 2521 
C 429 2521 486 2419 486 2137 
L 486 537 
C 486 217 442 172 32 96 
L 32 0 
L 1568 0 
L 1568 96 
C 1133 115 1024 211 1024 576 
L 1024 2016 
C 1024 2220 1299 2540 1472 2540 
C 1510 2540 1568 2508 1638 2444 
C 1741 2355 1811 2316 1894 2316 
C 2048 2316 2144 2425 2144 2604 
C 2144 2815 2010 2944 1792 2944 
C 1523 2944 1338 2796 1024 2342 
L 1024 2931 
L 992 2944 
C 653 2803 422 2720 45 2598 
L 45 2496 
z
" transform="scale(0.015625)"/>
       <path id="NimbusRomNo9L-Regu-6f" d="M 1600 2944 
C 768 2944 186 2329 186 1446 
C 186 582 781 -64 1587 -64 
C 2394 -64 3008 614 3008 1497 
C 3008 2336 2419 2944 1600 2944 
z
M 1517 2764 
C 2054 2764 2432 2150 2432 1273 
C 2432 550 2144 115 1664 115 
C 1414 115 1178 268 1043 524 
C 864 857 762 1305 762 1760 
C 762 2368 1062 2764 1517 2764 
z
" transform="scale(0.015625)"/>
       <path id="NimbusRomNo9L-Regu-76" d="M 3053 2880 
L 2163 2880 
L 2163 2783 
C 2368 2764 2464 2701 2464 2580 
C 2464 2517 2451 2454 2426 2390 
L 1792 748 
L 1139 2371 
C 1101 2460 1082 2549 1082 2606 
C 1082 2720 1152 2764 1376 2783 
L 1376 2880 
L 122 2880 
L 122 2783 
C 365 2771 410 2707 704 2054 
L 1472 235 
C 1485 197 1504 152 1523 102 
C 1562 -13 1600 -64 1638 -64 
C 1677 -64 1722 19 1818 254 
L 2637 2289 
C 2822 2720 2861 2764 3053 2783 
L 3053 2880 
z
" transform="scale(0.015625)"/>
       <path id="NimbusRomNo9L-Regu-65" d="M 2611 1052 
C 2304 564 2029 377 1619 377 
C 1254 377 979 564 794 930 
C 678 1174 634 1386 621 1779 
L 2592 1779 
C 2541 2193 2477 2377 2317 2580 
C 2125 2809 1830 2944 1498 2944 
C 1178 2944 877 2828 634 2612 
C 333 2351 160 1900 160 1374 
C 160 486 621 -64 1357 -64 
C 1965 -64 2445 313 2714 1007 
L 2611 1052 
z
M 634 1984 
C 704 2478 922 2713 1312 2713 
C 1702 2713 1856 2535 1939 1984 
L 634 1984 
z
" transform="scale(0.015625)"/>
       <path id="NimbusRomNo9L-Regu-6e" d="M 102 2547 
C 141 2566 205 2572 275 2572 
C 454 2572 512 2476 512 2163 
L 512 576 
C 512 211 442 121 115 96 
L 115 0 
L 1472 0 
L 1472 96 
C 1146 121 1050 198 1050 428 
L 1050 2227 
C 1357 2515 1498 2591 1709 2591 
C 2022 2591 2176 2393 2176 1971 
L 2176 633 
C 2176 230 2093 121 1773 96 
L 1773 0 
L 3104 0 
L 3104 96 
C 2790 128 2714 204 2714 518 
L 2714 1984 
C 2714 2585 2432 2944 1958 2944 
C 1664 2944 1466 2835 1030 2425 
L 1030 2931 
L 986 2944 
C 672 2828 454 2758 102 2655 
L 102 2547 
z
" transform="scale(0.015625)"/>
       <path id="NimbusRomNo9L-Regu-74" d="M 1632 2880 
L 986 2880 
L 986 3622 
C 986 3686 979 3705 941 3705 
C 896 3648 858 3590 813 3526 
C 570 3174 294 2867 192 2841 
C 122 2796 83 2751 83 2719 
C 83 2700 90 2687 109 2675 
L 448 2675 
L 448 748 
C 448 211 640 -64 1018 -64 
C 1331 -64 1574 89 1786 422 
L 1702 492 
C 1568 332 1459 268 1318 268 
C 1082 268 986 441 986 844 
L 986 2675 
L 1632 2675 
L 1632 2880 
z
" transform="scale(0.015625)"/>
       <path id="NimbusRomNo9L-Regu-28" d="M 1888 4352 
C 1414 4044 1222 3878 986 3583 
C 531 3027 307 2387 307 1638 
C 307 825 544 198 1107 -455 
C 1370 -762 1536 -903 1869 -1108 
L 1946 -1006 
C 1434 -602 1254 -378 1082 102 
C 928 530 858 1017 858 1657 
C 858 2329 941 2854 1114 3251 
C 1293 3647 1485 3878 1946 4249 
L 1888 4352 
z
" transform="scale(0.015625)"/>
       <path id="NimbusRomNo9L-Regu-61" d="M 2829 422 
C 2720 332 2643 300 2547 300 
C 2400 300 2355 390 2355 672 
L 2355 1920 
C 2355 2252 2323 2438 2227 2592 
C 2086 2822 1811 2944 1434 2944 
C 832 2944 358 2630 358 2227 
C 358 2080 486 1952 634 1952 
C 787 1952 922 2080 922 2220 
C 922 2246 915 2278 909 2323 
C 896 2380 890 2432 890 2476 
C 890 2649 1094 2790 1350 2790 
C 1664 2790 1837 2604 1837 2259 
L 1837 1868 
C 851 1472 742 1420 467 1177 
C 326 1049 237 832 237 620 
C 237 217 518 -64 909 -64 
C 1190 -64 1453 70 1843 403 
C 1875 70 1990 -64 2253 -64 
C 2470 -64 2605 12 2829 256 
L 2829 422 
z
M 1837 787 
C 1837 588 1805 531 1670 454 
C 1517 364 1338 307 1203 307 
C 979 307 800 524 800 800 
L 800 825 
C 800 1203 1062 1433 1837 1715 
L 1837 787 
z
" transform="scale(0.015625)"/>
       <path id="NimbusRomNo9L-Regu-69" d="M 1120 2944 
L 128 2592 
L 128 2496 
L 179 2502 
C 256 2515 339 2521 397 2521 
C 550 2521 608 2419 608 2137 
L 608 652 
C 608 192 544 121 102 96 
L 102 0 
L 1619 0 
L 1619 96 
C 1197 128 1146 192 1146 652 
L 1146 2924 
L 1120 2944 
z
M 819 4352 
C 646 4352 499 4204 499 4025 
C 499 3846 640 3699 819 3699 
C 1005 3699 1152 3839 1152 4025 
C 1152 4204 1005 4352 819 4352 
z
" transform="scale(0.015625)"/>
       <path id="NimbusRomNo9L-Regu-29" d="M 243 -1108 
C 717 -801 909 -634 1146 -340 
C 1600 217 1824 857 1824 1606 
C 1824 2425 1587 3046 1024 3699 
C 762 4006 595 4147 262 4352 
L 186 4249 
C 698 3846 870 3622 1050 3142 
C 1203 2713 1274 2227 1274 1587 
C 1274 921 1190 390 1018 -1 
C 838 -404 646 -634 186 -1006 
L 243 -1108 
z
" transform="scale(0.015625)"/>
      </defs>
      <use xlink:href="#NimbusRomNo9L-Regu-49" transform="scale(0.996264)"/>
      <use xlink:href="#NimbusRomNo9L-Regu-6d" transform="translate(33.17523 0) scale(0.996264)"/>
      <use xlink:href="#NimbusRomNo9L-Regu-70" transform="translate(110.6836 0) scale(0.996264)"/>
      <use xlink:href="#NimbusRomNo9L-Regu-72" transform="translate(160.4968 0) scale(0.996264)"/>
      <use xlink:href="#NimbusRomNo9L-Regu-6f" transform="translate(193.67203 0) scale(0.996264)"/>
      <use xlink:href="#NimbusRomNo9L-Regu-76" transform="translate(241.991838 0) scale(0.996264)"/>
      <use xlink:href="#NimbusRomNo9L-Regu-65" transform="translate(290.311646 0) scale(0.996264)"/>
      <use xlink:href="#NimbusRomNo9L-Regu-6d" transform="translate(334.545214 0) scale(0.996264)"/>
      <use xlink:href="#NimbusRomNo9L-Regu-65" transform="translate(412.053584 0) scale(0.996264)"/>
      <use xlink:href="#NimbusRomNo9L-Regu-6e" transform="translate(456.287153 0) scale(0.996264)"/>
      <use xlink:href="#NimbusRomNo9L-Regu-74" transform="translate(506.100354 0) scale(0.996264)"/>
      <use xlink:href="#NimbusRomNo9L-Regu-28" transform="translate(558.702124 0) scale(0.996264)"/>
      <use xlink:href="#NimbusRomNo9L-Regu-6d" transform="translate(591.877353 0) scale(0.996264)"/>
      <use xlink:href="#NimbusRomNo9L-Regu-65" transform="translate(669.385723 0) scale(0.996264)"/>
      <use xlink:href="#NimbusRomNo9L-Regu-61" transform="translate(713.619292 0) scale(0.996264)"/>
      <use xlink:href="#NimbusRomNo9L-Regu-6e" transform="translate(757.852861 0) scale(0.996264)"/>
      <use xlink:href="#NimbusRomNo9L-Regu-74" transform="translate(832.572661 0) scale(0.996264)"/>
      <use xlink:href="#NimbusRomNo9L-Regu-69" transform="translate(860.267831 0) scale(0.996264)"/>
      <use xlink:href="#NimbusRomNo9L-Regu-6d" transform="translate(887.963001 0) scale(0.996264)"/>
      <use xlink:href="#NimbusRomNo9L-Regu-65" transform="translate(965.471371 0) scale(0.996264)"/>
      <use xlink:href="#NimbusRomNo9L-Regu-29" transform="translate(1009.704939 0) scale(0.996264)"/>
     </g>
    </g>
   </g>
   <g id="patch_99">
    <path d="M 52.514572 516.824775 
L 52.514572 10.1 
" style="fill: none; stroke: #000000; stroke-width: 0.5; stroke-linejoin: miter; stroke-linecap: square"/>
   </g>
   <g id="patch_100">
    <path d="M 567.09952 516.824775 
L 567.09952 10.1 
" style="fill: none; stroke: #000000; stroke-width: 0.5; stroke-linejoin: miter; stroke-linecap: square"/>
   </g>
   <g id="patch_101">
    <path d="M 52.514572 516.824775 
L 567.09952 516.824775 
" style="fill: none; stroke: #000000; stroke-width: 0.5; stroke-linejoin: miter; stroke-linecap: square"/>
   </g>
   <g id="patch_102">
    <path d="M 52.514572 10.1 
L 567.09952 10.1 
" style="fill: none; stroke: #000000; stroke-width: 0.5; stroke-linejoin: miter; stroke-linecap: square"/>
   </g>
   <g id="legend_1">
    <g id="patch_103">
     <path d="M 240.85089 42.1 
L 280.85089 42.1 
L 280.85089 28.1 
L 240.85089 28.1 
z
" style="fill: #3f90da"/>
    </g>
    <g id="text_15">
     <!-- Rust -->
     <g transform="translate(296.85089 42.1) scale(0.2 -0.2)">
      <defs>
       <path id="NimbusRomNo9L-Regu-52" d="M 4218 121 
C 3974 140 3846 204 3661 421 
L 2342 2035 
C 2771 2118 2963 2194 3174 2366 
C 3379 2532 3501 2800 3501 3100 
C 3501 3374 3418 3610 3251 3795 
C 3008 4057 2477 4224 1875 4224 
L 109 4224 
L 109 4102 
C 589 4051 653 3981 653 3528 
L 653 765 
C 653 236 589 159 109 121 
L 109 0 
L 1882 0 
L 1882 121 
C 1389 153 1306 236 1306 695 
L 1306 1952 
L 1664 1965 
L 3187 0 
L 4218 0 
L 4218 121 
z
M 1306 3756 
C 1306 3935 1376 3987 1632 3987 
C 2432 3987 2803 3711 2803 3110 
C 2803 2790 2669 2521 2438 2399 
C 2144 2233 1920 2195 1306 2182 
L 1306 3756 
z
" transform="scale(0.015625)"/>
       <path id="NimbusRomNo9L-Regu-75" d="M 3066 319 
L 3034 319 
C 2739 319 2669 390 2669 684 
L 2669 2880 
L 1658 2880 
L 1658 2771 
C 2054 2752 2131 2688 2131 2368 
L 2131 864 
C 2131 684 2099 595 2010 524 
C 1837 384 1638 307 1446 307 
C 1197 307 992 524 992 793 
L 992 2880 
L 58 2880 
L 58 2790 
C 365 2771 454 2675 454 2380 
L 454 768 
C 454 262 762 -64 1229 -64 
C 1466 -64 1715 38 1888 211 
L 2163 486 
L 2163 -45 
L 2189 -64 
C 2509 64 2739 134 3066 224 
L 3066 319 
z
" transform="scale(0.015625)"/>
       <path id="NimbusRomNo9L-Regu-73" d="M 2016 2009 
L 1990 2880 
L 1920 2880 
L 1907 2867 
C 1850 2822 1843 2815 1818 2815 
C 1779 2815 1715 2828 1645 2860 
C 1504 2918 1363 2944 1197 2944 
C 691 2944 326 2617 326 2155 
C 326 1796 531 1539 1075 1231 
L 1446 1019 
C 1670 891 1779 737 1779 538 
C 1779 256 1574 76 1248 76 
C 1030 76 832 160 710 301 
C 576 461 518 609 435 974 
L 333 974 
L 333 -26 
L 416 -26 
C 461 38 486 51 563 51 
C 621 51 710 38 858 0 
C 1037 -39 1210 -64 1325 -64 
C 1818 -64 2227 307 2227 756 
C 2227 1077 2074 1289 1690 1520 
L 998 1930 
C 819 2033 723 2193 723 2366 
C 723 2623 922 2803 1216 2803 
C 1581 2803 1773 2585 1920 2014 
L 2016 2009 
z
" transform="scale(0.015625)"/>
      </defs>
      <use xlink:href="#NimbusRomNo9L-Regu-52" transform="scale(0.996264)"/>
      <use xlink:href="#NimbusRomNo9L-Regu-75" transform="translate(66.450031 0) scale(0.996264)"/>
      <use xlink:href="#NimbusRomNo9L-Regu-73" transform="translate(116.263232 0) scale(0.996264)"/>
      <use xlink:href="#NimbusRomNo9L-Regu-74" transform="translate(155.016938 0) scale(0.996264)"/>
     </g>
    </g>
    <g id="patch_104">
     <path d="M 240.85089 70.413658 
L 280.85089 70.413658 
L 280.85089 56.413658 
L 240.85089 56.413658 
z
" style="fill: #ffa90e"/>
    </g>
    <g id="text_16">
     <!-- Python -->
     <g transform="translate(296.85089 70.413658) scale(0.2 -0.2)">
      <defs>
       <path id="NimbusRomNo9L-Regu-50" d="M 1293 1875 
C 1459 1862 1568 1855 1734 1855 
C 2234 1855 2579 1919 2854 2073 
C 3238 2276 3469 2661 3469 3077 
C 3469 3343 3379 3583 3206 3766 
C 2950 4044 2394 4224 1792 4224 
L 102 4224 
L 102 4102 
C 576 4051 640 3987 640 3528 
L 640 765 
C 640 230 589 166 102 121 
L 102 0 
L 1894 0 
L 1894 121 
C 1389 140 1293 230 1293 695 
L 1293 1875 
z
M 1293 3772 
C 1293 3942 1338 3987 1510 3987 
C 2374 3987 2771 3690 2771 3040 
C 2771 2427 2394 2112 1658 2112 
C 1530 2112 1440 2118 1293 2130 
L 1293 3772 
z
" transform="scale(0.015625)"/>
       <path id="NimbusRomNo9L-Regu-79" d="M 3040 2880 
L 2176 2880 
L 2176 2783 
C 2381 2783 2483 2726 2483 2623 
C 2483 2597 2477 2559 2458 2514 
L 1837 741 
L 1101 2366 
C 1062 2456 1037 2540 1037 2610 
C 1037 2726 1133 2771 1408 2783 
L 1408 2880 
L 90 2880 
L 90 2790 
C 256 2764 365 2694 416 2585 
L 1146 1005 
L 1165 953 
L 1261 761 
C 1440 439 1542 208 1542 112 
C 1542 15 1395 -389 1286 -582 
C 1197 -749 1056 -871 966 -871 
C 928 -871 870 -858 806 -826 
C 685 -781 576 -755 467 -755 
C 320 -755 192 -884 192 -1037 
C 192 -1248 397 -1408 666 -1408 
C 1094 -1408 1402 -1050 1747 -126 
L 2733 2495 
C 2816 2700 2886 2764 3040 2783 
L 3040 2880 
z
" transform="scale(0.015625)"/>
       <path id="NimbusRomNo9L-Regu-68" d="M 1005 2195 
C 1274 2489 1466 2598 1715 2598 
C 2035 2598 2195 2368 2195 1920 
L 2195 652 
C 2195 217 2131 134 1760 96 
L 1760 0 
L 3117 0 
L 3117 96 
C 2771 160 2733 211 2733 652 
L 2733 1926 
C 2733 2598 2464 2944 1946 2944 
C 1568 2944 1299 2790 1005 2406 
L 1005 4352 
L 973 4371 
C 755 4294 595 4243 237 4140 
L 64 4089 
L 64 3987 
C 90 3993 109 3993 141 3993 
C 416 3993 467 3942 467 3667 
L 467 652 
C 467 204 429 147 58 96 
L 58 0 
L 1440 0 
L 1440 96 
C 1069 134 1005 211 1005 652 
L 1005 2195 
z
" transform="scale(0.015625)"/>
      </defs>
      <use xlink:href="#NimbusRomNo9L-Regu-50" transform="scale(0.996264)"/>
      <use xlink:href="#NimbusRomNo9L-Regu-79" transform="translate(55.391677 0) scale(0.996264)"/>
      <use xlink:href="#NimbusRomNo9L-Regu-74" transform="translate(105.204877 0) scale(0.996264)"/>
      <use xlink:href="#NimbusRomNo9L-Regu-68" transform="translate(132.900047 0) scale(0.996264)"/>
      <use xlink:href="#NimbusRomNo9L-Regu-6f" transform="translate(182.713248 0) scale(0.996264)"/>
      <use xlink:href="#NimbusRomNo9L-Regu-6e" transform="translate(232.526448 0) scale(0.996264)"/>
     </g>
    </g>
    <g id="patch_105">
     <path d="M 240.85089 98.727316 
L 280.85089 98.727316 
L 280.85089 84.727316 
L 240.85089 84.727316 
z
" style="fill: #bd1f01"/>
    </g>
    <g id="text_17">
     <!-- MATLAB -->
     <g transform="translate(296.85089 98.727316) scale(0.2 -0.2)">
      <defs>
       <path id="NimbusRomNo9L-Regu-4d" d="M 4314 3656 
L 4314 765 
C 4314 236 4237 153 3731 121 
L 3731 0 
L 5523 0 
L 5523 121 
C 5056 153 4966 242 4966 695 
L 4966 3528 
C 4966 3981 5050 4064 5523 4102 
L 5523 4224 
L 4250 4224 
L 2835 1002 
L 1357 4224 
L 90 4224 
L 90 4102 
C 614 4070 698 3994 698 3528 
L 698 938 
C 698 281 608 159 77 121 
L 77 0 
L 1581 0 
L 1581 121 
C 1088 147 979 293 979 938 
L 979 3509 
L 2586 0 
L 2675 0 
L 4314 3656 
z
" transform="scale(0.015625)"/>
       <path id="NimbusRomNo9L-Regu-41" d="M 4518 121 
C 4230 141 4166 205 3942 686 
L 2349 4288 
L 2221 4288 
L 890 1187 
C 480 238 403 134 96 121 
L 96 0 
L 1363 0 
L 1363 121 
C 1056 121 928 205 928 387 
C 928 465 947 556 979 641 
L 1274 1401 
L 2950 1401 
L 3213 777 
C 3290 602 3334 433 3334 342 
C 3334 179 3226 128 2886 121 
L 2886 0 
L 4518 0 
L 4518 121 
z
M 1382 1664 
L 2118 3392 
L 2861 1664 
L 1382 1664 
z
" transform="scale(0.015625)"/>
       <path id="NimbusRomNo9L-Regu-54" d="M 1626 3955 
L 1626 765 
C 1626 223 1555 153 1024 121 
L 1024 0 
L 2893 0 
L 2893 121 
C 2368 147 2278 230 2278 695 
L 2278 3955 
L 2624 3955 
C 3354 3955 3494 3840 3642 3138 
L 3795 3138 
L 3757 4224 
L 147 4224 
L 109 3138 
L 262 3138 
C 416 3834 563 3955 1280 3955 
L 1626 3955 
z
" transform="scale(0.015625)"/>
       <path id="NimbusRomNo9L-Regu-4c" d="M 3667 1110 
C 3558 868 3469 721 3373 613 
C 3149 364 2797 249 2266 249 
L 1837 249 
C 1370 249 1286 287 1286 511 
L 1286 3528 
C 1286 3981 1376 4070 1882 4102 
L 1882 4224 
L 77 4224 
L 77 4102 
C 550 4064 634 3974 634 3528 
L 634 696 
C 634 249 544 153 77 121 
L 77 0 
L 3520 0 
L 3827 1113 
L 3667 1110 
z
" transform="scale(0.015625)"/>
       <path id="NimbusRomNo9L-Regu-42" d="M 109 4224 
L 109 4102 
C 646 4070 723 4000 723 3528 
L 723 695 
C 723 223 640 140 109 121 
L 109 0 
L 2246 0 
C 2746 0 3200 134 3437 351 
C 3667 555 3795 842 3795 1148 
C 3795 1429 3680 1684 3482 1869 
C 3290 2041 3117 2118 2701 2220 
C 3034 2303 3168 2367 3322 2500 
C 3482 2641 3578 2877 3578 3138 
C 3578 3853 3008 4224 1901 4224 
L 109 4224 
z
M 1376 2080 
C 1997 2080 2291 2048 2522 1952 
C 2886 1799 3059 1544 3059 1142 
C 3059 798 2925 549 2669 402 
C 2464 287 2202 236 1779 236 
C 1466 236 1376 294 1376 498 
L 1376 2080 
z
M 1376 2335 
L 1376 3795 
C 1376 3929 1421 3987 1517 3987 
L 1798 3987 
C 2534 3987 2925 3680 2925 3113 
C 2925 2615 2586 2335 1984 2335 
L 1376 2335 
z
" transform="scale(0.015625)"/>
      </defs>
      <use xlink:href="#NimbusRomNo9L-Regu-4d" transform="scale(0.996264)"/>
      <use xlink:href="#NimbusRomNo9L-Regu-41" transform="translate(88.566907 0) scale(0.996264)"/>
      <use xlink:href="#NimbusRomNo9L-Regu-54" transform="translate(149.438446 0) scale(0.996264)"/>
      <use xlink:href="#NimbusRomNo9L-Regu-4c" transform="translate(210.310077 0) scale(0.996264)"/>
      <use xlink:href="#NimbusRomNo9L-Regu-41" transform="translate(271.181708 0) scale(0.996264)"/>
      <use xlink:href="#NimbusRomNo9L-Regu-42" transform="translate(343.111692 0) scale(0.996264)"/>
     </g>
    </g>
   </g>
  </g>
 </g>
 <defs>
  <clipPath id="pf3c613230e">
   <rect x="52.514572" y="10.1" width="514.584948" height="506.724775"/>
  </clipPath>
 </defs>
</svg>
